<svg width="1130" height="818" viewBox="0 0 1130 818" fill="none" xmlns="http://www.w3.org/2000/svg">
<path opacity="0.1" d="M656.54 128.66C584.1 126.09 515.1 102.13 449.22 75.92C383.34 49.71 318.07 20.66 247.37 6.77C201.89 -2.16 149.88 -3.42 113.24 21.55C77.97 45.55 66.58 87.09 60.46 125.55C55.85 154.55 53.14 185 65.76 212.12C74.53 230.95 90.1 246.77 100.87 264.8C138.32 327.55 111.87 404.93 71.25 466.2C52.25 494.94 30.12 522.36 15.43 552.95C0.739979 583.54 -6.06002 618.6 6.78998 649.81C19.54 680.75 49.9 703.98 82.79 720.32C149.6 753.52 228.33 763.02 305.1 768.4C475.04 780.31 645.89 775.15 816.28 769.99C879.34 768.07 942.67 766.14 1004.71 756.15C1039.15 750.6 1074.71 741.8 1099.71 720.54C1131.46 693.54 1139.33 647.87 1118.05 614.04C1082.4 557.31 983.73 543.23 958.79 482.31C945.06 448.79 959.16 411.45 979.11 380.31C1021.91 313.62 1093.65 255.11 1097.43 178.87C1100.03 126.51 1065.54 74.07 1012.22 49.3C956.32 23.3 878.82 26.6 837.58 69.58C795.12 113.91 720.5 130.94 656.54 128.66Z" fill="#3867D6"/>
<path opacity="0.1" d="M678.83 817.61C729.944 817.61 771.38 811.396 771.38 803.73C771.38 796.064 729.944 789.85 678.83 789.85C627.716 789.85 586.28 796.064 586.28 803.73C586.28 811.396 627.716 817.61 678.83 817.61Z" fill="#3867D6"/>
<path d="M644.47 778.69L466.28 776.41L466.81 771.84L475.42 696.45H631.91L643.42 771.84L644.3 777.55L644.47 778.69Z" fill="#D0D2D5"/>
<path opacity="0.1" d="M644.3 777.55H555.38L466.28 776.41L466.81 771.84H643.42L644.3 777.55Z" fill="black"/>
<path d="M673.03 772.98H436.58V778.69H673.03V772.98Z" fill="#D0D2D5"/>
<path d="M898.62 243.65C898.631 241.696 898.256 239.76 897.518 237.951C896.78 236.142 895.692 234.497 894.318 233.108C892.943 231.72 891.309 230.616 889.508 229.86C887.706 229.103 885.774 228.709 883.82 228.7H223.5C219.555 228.721 215.78 230.308 213.005 233.111C210.23 235.915 208.681 239.705 208.7 243.65V643.91H898.62V243.65Z" fill="#444053"/>
<path d="M208.7 639.91V686.79C208.7 690.715 210.259 694.48 213.035 697.255C215.81 700.031 219.575 701.59 223.5 701.59H883.82C885.764 701.591 887.689 701.209 889.485 700.466C891.282 699.723 892.914 698.633 894.288 697.258C895.663 695.884 896.753 694.251 897.496 692.455C898.239 690.659 898.621 688.734 898.62 686.79V639.91H208.7Z" fill="#D0D2D5"/>
<path d="M873.49 253.83H237.26V613.64H873.49V253.83Z" fill="white"/>
<path d="M557.09 683.81C559.426 683.81 561.731 683.28 563.832 682.26C565.934 681.24 567.776 679.756 569.22 677.92V677.92C569.661 677.359 570.062 676.767 570.42 676.15L562 674.75L571.15 674.82C572.028 672.91 572.506 670.841 572.556 668.74C572.606 666.639 572.226 664.549 571.44 662.6L559.17 668.97L570.49 660.65C569.418 658.841 567.987 657.269 566.285 656.033C564.583 654.797 562.647 653.923 560.594 653.463C558.542 653.003 556.417 652.968 554.35 653.36C552.284 653.752 550.32 654.563 548.578 655.742C546.836 656.921 545.354 658.444 544.223 660.218C543.092 661.991 542.336 663.977 542.001 666.053C541.666 668.13 541.759 670.253 542.275 672.292C542.79 674.331 543.718 676.243 545 677.91V677.91C546.439 679.742 548.274 681.225 550.368 682.247C552.462 683.269 554.76 683.803 557.09 683.81Z" fill="#3867D6"/>
<path opacity="0.1" d="M572.51 701.59L643.6 772.98L632.69 701.59H572.51Z" fill="black"/>
<path opacity="0.1" d="M873.68 253.87H236.76V274.89H873.68V253.87Z" fill="#444053"/>
<path d="M257.91 257.53H241.19C240.759 257.53 240.41 257.879 240.41 258.31V269.54C240.41 269.971 240.759 270.32 241.19 270.32H257.91C258.341 270.32 258.69 269.971 258.69 269.54V258.31C258.69 257.879 258.341 257.53 257.91 257.53Z" fill="#3867D6"/>
<path opacity="0.3" d="M649.22 257.53H458.48C458.16 257.53 457.9 257.79 457.9 258.11V269.74C457.9 270.06 458.16 270.32 458.48 270.32H649.22C649.54 270.32 649.8 270.06 649.8 269.74V258.11C649.8 257.79 649.54 257.53 649.22 257.53Z" fill="#3867D6"/>
<path d="M644.1 265.24H643.63L643.46 265.1C644.042 264.4 644.363 263.52 644.37 262.61C644.366 261.86 644.14 261.129 643.72 260.508C643.3 259.887 642.706 259.404 642.012 259.121C641.318 258.838 640.555 258.767 639.821 258.917C639.087 259.067 638.413 259.431 637.886 259.964C637.359 260.497 637.001 261.174 636.859 261.91C636.717 262.646 636.796 263.408 637.086 264.099C637.377 264.79 637.866 265.379 638.491 265.792C639.117 266.206 639.85 266.424 640.6 266.42C641.506 266.406 642.38 266.085 643.08 265.51L643.25 265.65V266.12L646.18 269.05L647.05 268.17L644.1 265.24ZM640.6 265.24C640.077 265.242 639.565 265.089 639.13 264.799C638.694 264.51 638.354 264.098 638.153 263.615C637.952 263.132 637.899 262.6 638 262.087C638.102 261.574 638.353 261.103 638.723 260.733C639.093 260.363 639.564 260.112 640.077 260.01C640.59 259.909 641.122 259.962 641.605 260.163C642.088 260.364 642.5 260.704 642.789 261.14C643.079 261.575 643.232 262.087 643.23 262.61C643.233 262.956 643.166 263.299 643.035 263.62C642.904 263.94 642.71 264.231 642.466 264.476C642.221 264.72 641.93 264.914 641.61 265.045C641.289 265.176 640.946 265.243 640.6 265.24V265.24Z" fill="#444053"/>
<path d="M864.54 270.32C868.075 270.32 870.94 267.455 870.94 263.92C870.94 260.385 868.075 257.52 864.54 257.52C861.005 257.52 858.14 260.385 858.14 263.92C858.14 267.455 861.005 270.32 864.54 270.32Z" fill="#3867D6"/>
<path opacity="0.1" d="M701.09 355.05H409.48C399.38 355.05 391.19 362.69 391.19 372.11V532.63C391.19 542.05 399.38 549.69 409.48 549.69H701.09C711.19 549.69 719.38 542.05 719.38 532.63V372.11C719.38 362.69 711.19 355.05 701.09 355.05Z" fill="black"/>
<path d="M689.75 345.91H421.01C410.699 345.91 402.34 354.269 402.34 364.58V521.88C402.34 532.191 410.699 540.55 421.01 540.55H689.75C700.061 540.55 708.42 532.191 708.42 521.88V364.58C708.42 354.269 700.061 345.91 689.75 345.91Z" fill="#454B69"/>
<path opacity="0.3" d="M478.35 455.39H439.29C436.639 455.39 434.49 457.539 434.49 460.19V467.1C434.49 469.751 436.639 471.9 439.29 471.9H478.35C481.001 471.9 483.15 469.751 483.15 467.1V460.19C483.15 457.539 481.001 455.39 478.35 455.39Z" fill="#3867D6"/>
<path opacity="0.3" d="M543.52 455.39H504.46C501.809 455.39 499.66 457.539 499.66 460.19V467.1C499.66 469.751 501.809 471.9 504.46 471.9H543.52C546.171 471.9 548.32 469.751 548.32 467.1V460.19C548.32 457.539 546.171 455.39 543.52 455.39Z" fill="#3867D6"/>
<path opacity="0.3" d="M564.37 489.28H531.39C528.739 489.28 526.59 491.429 526.59 494.08V496.64C526.59 499.291 528.739 501.44 531.39 501.44H564.37C567.021 501.44 569.17 499.291 569.17 496.64V494.08C569.17 491.429 567.021 489.28 564.37 489.28Z" fill="#3867D6"/>
<path opacity="0.3" d="M608.69 455.39H569.63C566.979 455.39 564.83 457.539 564.83 460.19V467.1C564.83 469.751 566.979 471.9 569.63 471.9H608.69C611.341 471.9 613.49 469.751 613.49 467.1V460.19C613.49 457.539 611.341 455.39 608.69 455.39Z" fill="#3867D6"/>
<path opacity="0.3" d="M673.86 455.39H634.8C632.149 455.39 630 457.539 630 460.19V467.1C630 469.751 632.149 471.9 634.8 471.9H673.86C676.511 471.9 678.66 469.751 678.66 467.1V460.19C678.66 457.539 676.511 455.39 673.86 455.39Z" fill="#3867D6"/>
<path d="M468.9 416.29H441.78C440.151 416.29 438.83 417.611 438.83 419.24V446.36C438.83 447.989 440.151 449.31 441.78 449.31H468.9C470.529 449.31 471.85 447.989 471.85 446.36V419.24C471.85 417.611 470.529 416.29 468.9 416.29Z" fill="#3867D6"/>
<path d="M460.77 438.23H450.35V427.81H460.77V438.23ZM450.77 437.8H460.33V428.24H450.77V437.8Z" fill="#454B69"/>
<path d="M455.77 416.29H455.34V428.02H455.77V416.29Z" fill="#454B69"/>
<path d="M455.77 438.01H455.34V449.31H455.77V438.01Z" fill="#454B69"/>
<path d="M450.56 432.58H438.83V433.01H450.56V432.58Z" fill="#454B69"/>
<path d="M471.86 432.58H460.56V433.01H471.86V432.58Z" fill="#454B69"/>
<path d="M450.41 428.18L447 424.79H438.83V424.35H447.18L450.72 427.87L450.41 428.18Z" fill="#454B69"/>
<path d="M460.7 428.18L460.41 427.86L464.38 424.35H471.85V424.79H464.55L460.7 428.18Z" fill="#454B69"/>
<path d="M447.19 442.24H438.83V441.8H446.99L450.4 437.87L450.73 438.16L447.19 442.24Z" fill="#454B69"/>
<path d="M471.85 442.24H464.37L460.4 438.17L460.71 437.86L464.56 441.8H471.85V442.24Z" fill="#454B69"/>
<path d="M522.71 360.9H438.37C436.106 360.9 434.27 362.736 434.27 365V373.31C434.27 375.574 436.106 377.41 438.37 377.41H522.71C524.974 377.41 526.81 375.574 526.81 373.31V365C526.81 362.736 524.974 360.9 522.71 360.9Z" fill="#3867D6"/>
<path d="M723.79 618C723.73 616.28 723.52 614.56 723.31 612.85C722.54 606.43 721.75 600.01 720.5 593.68C720.279 592.445 719.944 591.233 719.5 590.06C719.05 588.95 718.43 587.93 717.96 586.83C717.964 586.79 717.964 586.75 717.96 586.71C718.54 586.43 719.11 586.15 719.67 585.85C720.075 585.644 720.463 585.407 720.83 585.14C721.199 584.873 721.509 584.533 721.74 584.14C722.74 582.38 721.62 580.14 721.11 578.14C720.57 575.99 720.69 573.41 719.11 571.97C713.47 566.97 716.27 556.77 713.45 549.61C712.95 548.36 712.38 547.13 711.95 545.85C711.62 544.85 711.39 543.85 711.15 542.85C709.15 534.517 707.043 526.22 704.83 517.96C702.5 509.4 702.75 500.48 699.83 492.12C699.279 490.387 698.559 488.712 697.68 487.12C696.702 485.461 695.379 484.032 693.8 482.93C689.54 479.99 685.25 477.48 680.25 476.41C675.25 475.34 669.85 475.51 664.75 475.53C662.923 472.996 660.412 471.036 657.51 469.88L657.42 469.62C657.012 468.607 656.697 467.56 656.48 466.49C656.316 465.431 656.233 464.361 656.23 463.29C656.23 462.14 656.18 460.98 656.15 459.83L656.43 459.56C657.099 458.854 657.714 458.098 658.27 457.3C658.806 456.546 659.274 455.746 659.67 454.91C660.119 453.961 660.5 452.982 660.81 451.98C661.418 449.954 661.83 447.875 662.04 445.77C662.31 443.3 662.39 440.77 662.46 438.3C662.46 437.8 662.46 437.3 662.46 436.79V436.42C662.46 436.02 662.46 435.63 662.46 435.24V435.11C662.543 432.556 661.898 430.031 660.6 427.83C658.79 425.13 655.69 423.83 652.7 422.75C646.7 420.67 640.11 419.3 634.18 421.53C629.47 423.31 625.71 427.19 621.06 429.16C621.166 429.338 621.263 429.522 621.35 429.71C621.352 429.737 621.352 429.763 621.35 429.79C621.43 429.97 621.5 430.14 621.56 430.32C621.711 430.725 621.821 431.143 621.89 431.57V431.57C622.025 432.378 622.025 433.202 621.89 434.01C620.486 434.639 618.936 434.867 617.41 434.67C617.986 436.553 618.946 438.297 620.23 439.79C620.64 440.31 621.07 440.79 621.48 441.34L622.11 442.12C623.182 443.377 624.055 444.79 624.7 446.31C624.937 446.912 625.101 447.539 625.19 448.18C625.38 449.45 625.33 450.91 625.5 452.18C625.564 452.726 625.702 453.261 625.91 453.77C626.293 456.405 627.298 458.91 628.842 461.079C630.386 463.247 632.425 465.017 634.79 466.24C635.44 470.193 635.44 474.227 634.79 478.18C634.79 478.4 634.71 478.62 634.66 478.84C631.94 482.27 629.33 485.89 625.98 488.57C624.456 489.764 622.826 490.815 621.11 491.71C620.102 492.291 619.023 492.738 617.9 493.04C616.64 493.33 615.32 493.29 614.07 493.6C611.655 494.367 609.622 496.022 608.38 498.23C607.748 499.397 607.046 500.526 606.28 501.61C605.58 502.48 604.7 503.19 603.96 504.02C601.28 507.02 600.55 511.36 599.96 515.42C597.876 517.722 595.59 519.834 593.13 521.73C592.36 522.342 591.504 522.838 590.59 523.2C588.23 523.99 585.64 522.98 583.59 521.46C581.54 519.94 579.94 517.94 577.96 516.38L577.44 517.15C577.292 517.004 577.155 516.847 577.03 516.68C576.218 515.536 575.656 514.235 575.38 512.86C574.66 509.17 576.02 505.22 574.96 501.63C574.57 500.33 573.63 498.99 572.33 499.02C571.03 499.05 570.22 500.35 569.1 500.96C567.3 501.96 565.1 501.05 563.32 500.06C561.54 499.07 559.51 497.96 557.56 498.55C557.523 499.194 557.638 499.838 557.897 500.429C558.156 501.02 558.551 501.541 559.05 501.95C560.054 502.745 560.879 503.743 561.47 504.88C561.762 506.121 561.873 507.397 561.8 508.67C562 511.59 563.8 514.1 565.54 516.38C567.7 519.147 569.96 521.833 572.32 524.44C572.037 524.937 571.592 525.321 571.06 525.53C570.925 526.004 570.925 526.506 571.06 526.98C571.159 527.307 571.286 527.625 571.44 527.93C571.67 528.4 571.95 528.86 572.19 529.29L575.7 535.46L576.27 536.46C576.51 536.88 576.75 537.28 577 537.69C577.827 539.127 578.81 540.468 579.93 541.69C580.488 542.277 581.105 542.807 581.77 543.27C582.203 543.581 582.661 543.855 583.14 544.09C583.809 544.432 584.523 544.677 585.26 544.82C585.622 544.897 585.99 544.944 586.36 544.96C586.743 544.99 587.127 544.99 587.51 544.96C588.663 544.799 589.793 544.507 590.88 544.09C597.57 541.74 603.71 537.99 610.07 534.8C610.945 534.311 611.884 533.947 612.86 533.72C613.189 533.657 613.525 533.63 613.86 533.64C614.2 533.65 614.536 533.707 614.86 533.81C615.18 533.917 615.482 534.069 615.76 534.26C616.321 534.637 616.712 535.218 616.85 535.88C617.04 536.88 617.22 537.81 617.4 538.77C617.58 539.73 617.78 540.69 617.98 541.65C618.38 543.56 618.81 545.47 619.31 547.36C619.58 548.36 619.84 549.42 620.1 550.46C620.74 553 621.37 555.56 621.95 558.12C622.13 558.92 622.3 559.73 622.46 560.53C622.758 561.953 622.971 563.392 623.1 564.84C623.104 564.873 623.104 564.907 623.1 564.94C623.2 566.2 623.21 567.45 623.22 568.71V572.66L623.32 584.32C623.32 586 622.42 587.05 621.71 588.56C621.57 588.87 621.44 589.19 621.33 589.51C621.196 589.916 621.085 590.33 621 590.75C621 590.88 620.94 591.02 620.92 591.15C620.9 591.28 620.92 591.46 620.86 591.61C620.8 591.76 620.86 591.91 620.81 592.05C620.76 592.19 620.81 592.35 620.81 592.49C620.81 592.63 620.81 592.81 620.81 592.97C620.81 593.13 620.81 593.25 620.81 593.38C620.81 593.51 620.81 593.73 620.81 593.9C620.81 594.07 620.81 594.15 620.81 594.27C620.81 594.39 620.88 594.66 620.91 594.86L620.97 595.16C621.04 595.45 621.11 595.74 621.21 596.03C621.41 596.63 621.66 597.22 621.92 597.8C622.18 598.38 622.44 598.97 622.66 599.57C622.799 599.95 622.92 600.337 623.02 600.73C623.045 600.819 623.065 600.909 623.08 601C623.16 601.31 623.23 601.62 623.29 601.94V602.16C623.35 602.5 623.4 602.85 623.44 603.16C623.445 603.2 623.445 603.24 623.44 603.28C623.44 603.67 623.52 604.06 623.54 604.45C623.63 605.87 623.61 607.32 623.54 608.75L623.42 615.87V616.09C623.409 616.312 623.457 616.533 623.56 616.73C623.632 616.842 623.731 616.934 623.848 616.997C623.965 617.06 624.097 617.092 624.23 617.09C624.737 617.053 625.221 616.865 625.62 616.55L628.8 614.24H629C626.49 618.35 624.48 622.88 624.09 627.71C623.939 630.899 624.143 634.096 624.7 637.24C627.63 658.24 634.53 679.43 633.08 700.63C632.51 708.98 635.97 717.12 635.95 725.48C635.95 728.73 635.4 731.95 635.26 735.19C634.65 749.11 641.75 763.19 638.86 776.79C639.86 780.17 643.65 781.97 644.72 785.33C645.62 788.18 644.32 791.21 643.27 794C642.892 794.972 642.601 795.976 642.4 797C639.49 797 636.26 797.06 634.32 797.87C633.782 798.046 633.258 798.26 632.75 798.51C630.96 799.58 630.84 802.51 631.97 804.28C633.1 806.05 639.45 811.7 641.31 812.63L645.38 814.63C647.564 815.864 649.925 816.755 652.38 817.27C654.446 817.5 656.534 817.46 658.59 817.15C660.18 816.98 661.94 816.72 662.97 815.42C664.42 813.58 663.68 810.59 662.69 807.93C663.056 807.638 663.339 807.255 663.51 806.82C663.686 806.124 663.776 805.408 663.78 804.69C664.074 803.3 664.551 801.954 665.2 800.69C666.87 796.62 666.8 792.04 666.7 787.61C666.718 780.407 666.224 773.212 665.22 766.08C664.72 763.08 664.04 760.08 663.46 757.08C661.326 746.216 660.41 735.147 660.73 724.08C660.766 721.392 660.392 718.715 659.62 716.14C659.292 714.654 659.204 713.124 659.36 711.61L660.56 693.3C660.901 689.576 660.958 685.832 660.73 682.1C660.56 680.1 660.23 678.1 660.03 676.1C659.727 672.288 659.663 668.46 659.84 664.64C659.95 660.53 660.14 656.12 662.49 652.82C662.61 652.608 662.771 652.422 662.963 652.273C663.155 652.123 663.375 652.014 663.61 651.95C664.09 651.88 664.23 652.53 664.05 652.95C664.3 653.71 664.56 654.46 664.82 655.22C664.9 655.44 664.97 655.65 665.05 655.86C665.18 656.25 665.32 656.64 665.46 657.03C665.6 657.42 665.66 657.57 665.75 657.84L666.14 658.84C666.25 659.14 666.37 659.43 666.48 659.72C666.59 660.01 666.73 660.35 666.86 660.66C666.99 660.97 667.12 661.28 667.26 661.59C667.4 661.9 667.5 662.16 667.63 662.45L668.11 663.45C668.23 663.7 668.35 663.96 668.48 664.21C668.61 664.46 668.87 664.94 669.07 665.3C669.18 665.51 669.29 665.72 669.41 665.92C669.73 666.48 670.06 667.02 670.41 667.56C671.09 668.56 671.82 669.56 672.41 670.63C672.618 670.982 672.805 671.346 672.97 671.72C673.524 673.101 673.962 674.526 674.28 675.98C674.63 677.3 675.04 678.59 675.49 679.86C675.94 681.13 676.49 682.4 676.98 683.64C677.25 684.26 677.53 684.88 677.81 685.49C678.65 687.34 679.56 689.16 680.48 690.96C680.641 691.279 680.769 691.614 680.86 691.96C680.906 692.128 680.943 692.298 680.97 692.47C681.007 692.802 681.007 693.138 680.97 693.47C680.959 693.678 680.932 693.886 680.89 694.09C680.83 694.398 680.74 694.7 680.62 694.99C679.39 697.8 680.38 700.57 680.92 703.33C681.392 706.239 681.62 709.183 681.6 712.13C681.6 713.13 681.6 714.13 681.69 715.06C681.69 716.28 681.69 717.49 681.76 718.71C681.83 719.93 681.76 721.33 681.83 722.64C681.852 723.952 681.799 725.264 681.67 726.57C681.67 727.03 681.55 727.48 681.48 727.93C681.26 729.28 680.95 730.62 680.68 731.93C679.681 737.203 679.219 742.564 679.3 747.93C679.3 750.083 679.37 752.24 679.51 754.4C679.63 756.57 679.8 758.73 679.99 760.9C680.09 762.09 680.21 763.28 680.33 764.47C680.53 766.53 680.75 768.59 680.97 770.65C681.19 772.71 681.43 774.98 681.64 777.13C681.85 779.28 682.04 781.43 682.19 783.57C682.284 784.631 682.061 785.696 681.55 786.63C681.348 787.001 681.181 787.389 681.05 787.79C680.957 788.068 680.883 788.352 680.83 788.64C680.771 788.971 680.731 789.305 680.71 789.64C680.685 790.342 680.725 791.045 680.83 791.74C680.883 792.087 680.943 792.42 681.01 792.74C681.16 793.43 681.34 794.12 681.52 794.8C681.932 796.684 682.605 798.502 683.52 800.2C683.715 800.549 683.935 800.884 684.18 801.2C684.25 801.3 684.33 801.39 684.41 801.49C684.617 801.73 684.807 801.984 684.98 802.25C685.062 802.373 685.132 802.504 685.19 802.64C685.395 803.193 685.437 803.794 685.31 804.37C685.2 804.97 684.99 805.57 684.83 806.14L685.35 806.21C684.62 808.52 684.28 810.89 685.51 812.44C686.51 813.74 688.3 814 689.89 814.17C691.945 814.488 694.033 814.532 696.1 814.3C698.555 813.785 700.916 812.894 703.1 811.66L707.17 809.66C709.03 808.73 715.37 803.12 716.5 801.3C717.63 799.48 717.5 796.61 715.73 795.54C715.224 795.284 714.699 795.067 714.16 794.89C712.36 794.14 709.45 794.07 706.73 794.03C706.59 793.03 706.51 791.94 706.47 790.91C706.288 787.083 706.362 783.248 706.69 779.43C706.92 776.72 707.27 774.02 707.24 771.31C707.24 767.69 706.49 764.11 706.1 760.51C705.71 756.91 705.67 753.39 705.61 749.83C705.52 744.59 707.06 739.6 707.73 734.42L708.9 725.31C709.096 724.204 709.123 723.074 708.98 721.96C708.8 720.96 708.34 719.96 708.15 718.96C707.74 716.69 708.77 714.44 709.09 712.15C709.46 709.52 708.89 706.85 708.52 704.21C708.035 700.041 707.804 695.847 707.83 691.65C707.47 665.85 706.74 639.47 698.02 615.33C697.67 614.33 697.29 613.33 696.9 612.4C697.076 612.352 697.25 612.296 697.42 612.23C697.692 612.129 697.951 611.995 698.19 611.83C698.296 611.766 698.397 611.692 698.49 611.61C698.769 611.332 698.972 610.988 699.08 610.61C699.197 610.245 699.258 609.864 699.26 609.48C699.248 608.804 699.15 608.132 698.97 607.48L698.85 607.07C698.65 606.39 698.43 605.72 698.2 605.07C697.98 604.42 697.74 603.79 697.49 603.15C696.969 601.964 696.548 600.736 696.23 599.48C695.62 596.64 696.23 593.36 694.52 591.05C690.74 585.87 693.41 577.91 691.83 571.6C691.31 569.6 690.55 567.6 690.07 565.6C689.77 564.32 689.58 563.01 689.39 561.7C688.89 558.868 688.642 555.996 688.65 553.12C688.65 551.68 688.87 550.24 689.04 548.81L690.24 538.89C691.581 541.456 692.538 544.206 693.08 547.05C693.17 547.46 693.25 547.86 693.34 548.27C694.421 553.163 695.756 557.996 697.34 562.75C698.25 565.62 699.15 568.48 700.13 571.32C700.42 572.13 700.7 572.95 700.96 573.78C701.215 574.609 701.416 575.454 701.56 576.31C701.67 576.99 701.72 577.69 701.77 578.38C701.82 579.07 701.86 579.78 701.93 580.47C702.257 583.423 703.248 586.264 704.83 588.78C704.88 588.844 704.927 588.911 704.97 588.98C705.239 589.466 705.671 589.841 706.19 590.04V590.04C706.549 590.115 706.921 590.115 707.28 590.04H707.34C707.87 589.93 708.4 589.81 708.92 589.68C708.998 589.665 709.075 589.645 709.15 589.62C709.39 592.72 710.31 595.81 710.39 598.94C710.49 603.49 708.82 607.85 707.76 612.26C706.867 616.284 706.269 620.369 705.97 624.48C705.833 625.294 705.884 626.129 706.12 626.92C706.234 627.304 706.478 627.637 706.81 627.861C707.142 628.085 707.541 628.187 707.94 628.15C708.222 628.055 708.481 627.905 708.703 627.707C708.924 627.509 709.104 627.269 709.23 627C710.419 625.023 710.816 622.668 710.34 620.41C711.29 620.61 711.78 621.7 712.01 622.69C712.618 625.257 712.472 627.944 711.59 630.43C711 632.09 710.09 633.62 709.59 635.33C709.41 635.862 709.41 636.438 709.59 636.97C710.09 638.12 711.67 638.04 712.81 637.62C716.536 636.101 719.562 633.249 721.3 629.62C723.07 626.009 723.925 622.019 723.79 618V618Z" fill="url(#paint0_linear)"/>
<path d="M665.45 815.51C664.38 816.8 662.55 817.06 660.89 817.23C658.747 817.539 656.573 817.58 654.42 817.35C651.881 816.838 649.432 815.955 647.15 814.73L642.91 812.73C640.98 811.8 634.38 806.22 633.2 804.41C632.02 802.6 632.14 799.75 634 798.68C634.532 798.43 635.08 798.216 635.64 798.04C638.76 796.8 645.08 797.43 648.4 796.95C650.046 796.873 651.681 797.257 653.12 798.06C656.4 799.51 662.18 800.66 663.61 804.35C664.72 807.19 667.76 812.7 665.45 815.51Z" fill="#2F2E41"/>
<path d="M689 812.77C690.07 814.06 691.9 814.32 693.56 814.49C698.29 815.374 703.179 814.48 707.29 811.98L711.53 809.98C713.47 809.05 720.07 803.47 721.25 801.66C722.43 799.85 722.31 796.99 720.44 795.93C719.915 795.674 719.369 795.46 718.81 795.29C715.69 794.05 709.37 794.68 706.05 794.2C704.4 794.119 702.761 794.504 701.32 795.31C698.05 796.76 692.32 797.91 690.84 801.6C689.7 804.45 686.65 809.96 689 812.77Z" fill="#2F2E41"/>
<path d="M699.31 610.57C700.332 612.536 701.224 614.567 701.98 616.65C711.06 640.65 711.82 666.91 712.2 692.58C712.166 696.754 712.403 700.926 712.91 705.07C713.29 707.7 713.91 710.35 713.5 712.98C713.17 715.25 712.1 717.49 712.5 719.74C712.69 720.74 713.17 721.74 713.36 722.74C713.51 723.848 713.479 724.972 713.27 726.07L712.06 735.13C711.36 740.29 709.76 745.25 709.85 750.46C709.91 754.01 709.97 757.56 710.36 761.09C710.94 764.647 711.337 768.232 711.55 771.83C711.55 774.53 711.21 777.22 710.97 779.91C710.633 783.707 710.556 787.523 710.74 791.33C710.88 794.26 711.22 797.33 712.74 799.8C710.99 802.3 709.27 804.54 706.48 805.8C700.81 808.28 694.3 807.44 688.17 806.55C688.51 805.42 689.03 804.14 688.54 803.06C688.256 802.538 687.903 802.057 687.49 801.63C686.156 799.726 685.227 797.568 684.76 795.29C684.02 792.58 683.28 789.67 684.76 787.08C685.281 786.17 685.514 785.125 685.43 784.08C684.16 767.08 680.37 749.44 683.86 732.73C684.23 730.95 684.67 729.17 684.86 727.36C685.048 724.758 685.082 722.146 684.96 719.54L685 715.81C684.82 711.94 685 707.97 684.2 704.14C683.65 701.4 682.61 698.64 683.89 695.84C684.166 695.203 684.292 694.511 684.259 693.818C684.226 693.125 684.035 692.448 683.7 691.84C681.006 687.122 678.839 682.122 677.24 676.93C676.909 675.48 676.454 674.062 675.88 672.69C675.101 671.242 674.205 669.861 673.2 668.56C670.2 664.15 668.34 659.04 666.56 654C666.75 653.53 666.56 652.89 666.11 653C665.867 653.06 665.638 653.168 665.437 653.317C665.236 653.466 665.067 653.654 664.94 653.87C662.5 657.15 662.29 661.53 662.18 665.63C661.997 669.43 662.063 673.238 662.38 677.03C662.58 679.03 662.93 681.03 663.11 683.03C663.345 686.742 663.285 690.467 662.93 694.17L661.7 712.31C661.525 713.817 661.613 715.343 661.96 716.82C662.763 719.372 663.154 722.035 663.12 724.71C662.805 735.711 663.772 746.712 666 757.49C666.6 760.49 667.31 763.43 667.83 766.42C668.868 773.512 669.383 780.672 669.37 787.84C669.48 792.25 669.55 796.84 667.81 800.84C667.127 802.095 666.629 803.443 666.33 804.84C666.329 805.556 666.235 806.268 666.05 806.96C665.54 808.27 664.05 808.83 662.64 809.13C660.057 809.691 657.407 809.879 654.77 809.69C654.152 809.684 653.542 809.547 652.98 809.29C651.98 808.78 651.48 807.7 650.73 806.89C649.12 805.13 646.44 804.59 644.97 802.71C643.13 800.35 643.9 796.94 644.97 794.16C646.04 791.38 647.41 788.37 646.47 785.53C645.36 782.2 641.47 780.4 640.37 777.04C643.37 763.5 635.99 749.5 636.62 735.65C636.77 732.42 637.33 729.22 637.34 725.99C637.34 717.67 633.77 709.57 634.34 701.27C635.85 680.18 628.66 659.12 625.62 638.19C625.038 635.069 624.824 631.891 624.98 628.72C625.43 623.48 627.86 618.61 630.78 614.24C632.88 611.11 635.4 608.04 638.87 606.58C641.73 605.37 644.93 605.38 648.03 605.4C655.77 605.46 663.51 605.52 671.25 605.66C676.518 605.584 681.779 606.053 686.95 607.06C691.14 608.01 695.06 609.96 699.31 610.57Z" fill="#2F2E41"/>
<g opacity="0.1">
<path opacity="0.1" d="M667.38 653.81C667.64 653.377 668.06 653.064 668.55 652.94C669.05 652.87 669.2 653.51 669.01 653.94C670.79 658.94 672.61 664.09 675.64 668.5C676.651 669.798 677.551 671.18 678.33 672.63C678.9 674.003 679.355 675.421 679.69 676.87C681.29 682.06 683.453 687.06 686.14 691.78C686.477 692.387 686.669 693.064 686.702 693.758C686.735 694.452 686.608 695.143 686.33 695.78C685.05 698.58 686.09 701.34 686.65 704.08C687.42 707.91 687.27 711.88 687.45 715.75C687.45 716.96 687.45 718.17 687.52 719.38C687.65 721.986 687.62 724.598 687.43 727.2C687.22 729.01 686.78 730.79 686.43 732.57C682.95 749.28 686.73 766.89 688 783.92C688.088 784.964 687.858 786.01 687.34 786.92C685.82 789.51 686.56 792.42 687.34 795.13C687.799 797.41 688.729 799.57 690.07 801.47C690.459 801.905 690.795 802.385 691.07 802.9C691.56 803.98 691.07 805.26 690.69 806.39C693.399 806.825 696.13 807.116 698.87 807.26C695.314 807.289 691.763 806.998 688.26 806.39C688.6 805.26 689.12 803.98 688.63 802.9C688.346 802.378 687.993 801.897 687.58 801.47C686.246 799.566 685.317 797.408 684.85 795.13C684.11 792.42 683.37 789.51 684.85 786.92C685.371 786.01 685.604 784.965 685.52 783.92C684.25 766.92 680.46 749.28 683.95 732.57C684.32 730.79 684.76 729.01 684.95 727.2C685.138 724.598 685.172 721.986 685.05 719.38C685.05 718.17 685 716.96 684.97 715.75C684.79 711.88 684.97 707.91 684.17 704.08C683.62 701.34 682.58 698.58 683.86 695.78C684.136 695.143 684.262 694.451 684.229 693.758C684.196 693.065 684.005 692.388 683.67 691.78C680.976 687.062 678.81 682.062 677.21 676.87C676.875 675.421 676.42 674.003 675.85 672.63C675.071 671.182 674.175 669.801 673.17 668.5C670.27 664.29 668.48 659.45 666.78 654.63C667 654.38 667.18 654.09 667.38 653.81Z" fill="black"/>
</g>
<path d="M574.26 514.42C573.51 510.75 574.93 506.82 573.82 503.25C573.42 501.96 572.44 500.62 571.09 500.65C569.74 500.68 568.89 501.97 567.73 502.58C565.86 503.58 563.58 502.67 561.73 501.69C559.88 500.71 557.73 499.59 555.73 500.18C555.49 501.46 556.35 502.67 557.29 503.56C558.321 504.348 559.176 505.342 559.8 506.48C560.27 507.66 560.05 508.98 560.15 510.25C560.36 513.15 562.15 515.66 564.04 517.92C567.002 521.562 570.15 525.05 573.47 528.37C573.47 528.37 578.47 522.13 578.4 521.04C578.33 519.95 576.62 519.04 576 518.22C575.147 517.097 574.553 515.799 574.26 514.42V514.42Z" fill="#A1616A"/>
<path d="M724.32 591.22C724.768 592.385 725.103 593.591 725.32 594.82C726.62 601.12 727.44 607.51 728.25 613.89C728.46 615.59 728.68 617.3 728.74 619.01C728.973 623.085 728.136 627.15 726.31 630.8C724.467 634.474 721.318 637.327 717.48 638.8C716.3 639.22 714.65 639.3 714.13 638.16C713.945 637.632 713.945 637.057 714.13 636.53C714.6 634.83 715.55 633.3 716.13 631.65C717.043 629.185 717.196 626.503 716.57 623.95C716.33 622.95 715.82 621.88 714.83 621.68C715.323 623.934 714.906 626.292 713.67 628.24C713.534 628.51 713.345 628.749 713.115 628.945C712.885 629.141 712.618 629.289 712.33 629.38C711.922 629.422 711.512 629.324 711.166 629.103C710.821 628.881 710.562 628.549 710.43 628.16C710.19 627.373 710.138 626.54 710.28 625.73C710.594 621.636 711.215 617.571 712.14 613.57C713.24 609.18 714.99 604.85 714.87 600.32C714.77 596.22 713.14 592.19 713.6 588.12C713.592 587.894 713.661 587.672 713.796 587.491C713.93 587.309 714.122 587.179 714.34 587.12C715.488 586.649 716.668 586.258 717.87 585.95C718.58 585.77 721 584.95 721.68 585.31C722.36 585.67 722.4 587.44 722.68 588.06C723.21 589.09 723.86 590.11 724.32 591.22Z" fill="#A1616A"/>
<path d="M643.39 469.72C652.641 469.72 660.14 462.221 660.14 452.97C660.14 443.719 652.641 436.22 643.39 436.22C634.139 436.22 626.64 443.719 626.64 452.97C626.64 462.221 634.139 469.72 643.39 469.72Z" fill="#A1616A"/>
<path d="M658.4 465.09C658.393 466.159 658.477 467.226 658.65 468.28C658.883 469.346 659.218 470.388 659.65 471.39C660.207 473.027 660.995 474.576 661.99 475.99C662.999 477.417 664.516 478.405 666.23 478.75C654.778 484.121 642.551 487.654 630 489.22C631.977 487.906 633.62 486.15 634.8 484.09C635.431 482.772 635.859 481.366 636.07 479.92C637.144 473.863 636.602 467.631 634.5 461.85C634.29 461.29 634.09 460.59 634.5 460.12C634.671 459.953 634.876 459.823 635.1 459.74C640.071 457.629 645.442 456.626 650.84 456.8C652.22 456.8 653.6 456.87 654.98 456.97C655.72 457.03 657.35 456.87 657.98 457.41C658.61 457.95 658.33 460.07 658.35 460.94L658.4 465.09Z" fill="#A1616A"/>
<path d="M667.26 477.31C664.795 474.155 661.345 471.915 657.46 470.948C653.574 469.98 649.477 470.34 645.82 471.97C637.82 475.78 633.92 484.97 626.91 490.29C625.315 491.485 623.614 492.532 621.83 493.42C620.777 494 619.655 494.443 618.49 494.74C617.18 495.03 615.82 494.99 614.49 495.3C612.004 496.03 609.886 497.673 608.56 499.9C607.906 501.066 607.178 502.188 606.38 503.26C605.65 504.13 604.74 504.84 603.97 505.67C601.18 508.67 600.42 512.97 599.79 517.01C597.606 519.306 595.224 521.404 592.67 523.28C591.869 523.897 590.979 524.39 590.03 524.74C587.58 525.54 584.87 524.53 582.78 523.02C580.69 521.51 578.99 519.52 576.93 518.02C575.04 520.72 573.06 523.44 571.04 526.02C570.738 526.522 570.272 526.904 569.72 527.1C569.34 528.38 570.25 529.7 570.93 530.84L574.58 536.98C575.792 539.212 577.273 541.288 578.99 543.16C580.761 545.002 583.151 546.124 585.7 546.31C587.312 546.295 588.908 545.987 590.41 545.4C597.41 543.06 603.76 539.33 610.41 536.15C611.61 535.468 612.952 535.074 614.33 535C615.019 534.984 615.694 535.193 616.253 535.596C616.813 535.998 617.226 536.572 617.43 537.23C618.19 541.07 618.94 544.89 619.98 548.65C620.973 552.21 621.89 555.78 622.73 559.36C623.294 561.558 623.695 563.794 623.93 566.05C624.04 567.33 624.05 568.61 624.07 569.9L624.21 585.42C624.21 587.1 623.27 588.14 622.53 589.64C621.415 591.972 621.246 594.646 622.06 597.1C622.47 598.31 623.12 599.43 623.58 600.63C624.68 603.52 624.64 606.7 624.58 609.79L624.45 616.87C624.412 617.165 624.465 617.465 624.6 617.73C625.03 618.4 626.07 618.01 626.73 617.55L630 615.31C634.432 615.922 638.91 616.14 643.38 615.96C656.09 615.78 668.81 616.28 681.49 617.17C685.73 617.47 690.1 617.79 694.1 616.38C696.1 615.66 698 614.51 700.1 613.94C700.958 613.799 701.77 613.457 702.47 612.94C703.63 611.87 703.32 609.94 702.85 608.48C702.43 607.16 701.96 605.85 701.43 604.57C700.891 603.391 700.45 602.171 700.11 600.92C699.48 598.1 700.11 594.83 698.34 592.53C694.4 587.38 697.19 579.45 695.53 573.18C695 571.18 694.21 569.18 693.71 567.18C693.39 565.9 693.19 564.6 693 563.3C692.475 560.484 692.217 557.625 692.23 554.76C692.23 553.33 692.46 551.9 692.64 550.48L693.89 540.6C695.449 543.524 696.535 546.676 697.11 549.94C698.246 554.816 699.648 559.627 701.31 564.35C702.25 567.2 703.19 570.04 704.21 572.87C704.863 574.486 705.361 576.16 705.7 577.87C705.92 579.24 705.93 580.64 706.09 582.01C706.425 584.964 707.453 587.798 709.09 590.28C709.397 590.857 709.901 591.304 710.51 591.54C710.915 591.629 711.335 591.629 711.74 591.54C716.162 590.666 720.443 589.186 724.46 587.14C725.314 586.782 726.056 586.202 726.61 585.46C727.69 583.7 726.48 581.51 725.95 579.51C725.42 577.51 725.52 574.8 723.84 573.37C717.97 568.37 720.84 558.24 717.95 551.12C717.43 549.87 716.83 548.66 716.39 547.38C716.05 546.38 715.8 545.38 715.55 544.38C713.503 536.093 711.31 527.837 708.97 519.61C706.55 511.09 706.81 502.22 703.76 493.9C703.187 492.162 702.44 490.487 701.53 488.9C700.51 487.241 699.146 485.819 697.53 484.73C693.1 481.8 688.64 479.31 683.43 478.25C678.22 477.19 672.56 477.25 667.26 477.31Z" fill="#3F3D56"/>
<path d="M628.17 457.07C625.92 455.86 626.51 452.56 626.17 450.07C625.38 444.86 619.51 441.78 618.17 436.7C619.754 436.897 621.363 436.669 622.83 436.04C623.111 434.353 622.778 432.622 621.89 431.16C626.72 429.16 630.64 425.35 635.54 423.58C641.72 421.35 648.54 422.72 654.82 424.79C657.93 425.79 661.16 427.16 663.04 429.84C665.1 432.79 665.04 436.66 664.96 440.26C664.79 445.9 664.56 451.74 662.05 456.79C658.86 463.22 649.81 469.17 642.33 467.43C639.23 466.71 638.33 464.75 637 462.05C636.18 460.37 635.88 458.42 634 457.54C632.12 456.66 630 458.05 628.17 457.07Z" fill="#3F3D56"/>
<g opacity="0.1">
<path opacity="0.1" d="M624.53 610.98C624.526 611.01 624.526 611.04 624.53 611.07C624.96 611.74 626 611.35 626.66 610.89L629.98 608.6C634.412 609.209 638.89 609.423 643.36 609.24C656.07 609.06 668.79 609.56 681.47 610.45C685.71 610.75 690.08 611.07 694.08 609.66C696.08 608.94 697.98 607.8 700.08 607.22C700.805 607.086 701.504 606.836 702.15 606.48C702.39 607.14 702.62 607.8 702.83 608.48C703.3 609.99 703.61 611.87 702.45 612.94C701.751 613.457 700.938 613.799 700.08 613.94C698 614.51 696.08 615.66 694.08 616.38C690.08 617.79 685.71 617.47 681.47 617.17C668.79 616.28 656.07 615.78 643.36 615.96C638.896 616.138 634.425 615.921 630 615.31L626.68 617.61C626.02 618.07 624.98 618.46 624.55 617.79C624.415 617.525 624.362 617.225 624.4 616.93C624.447 614.95 624.49 612.967 624.53 610.98Z" fill="black"/>
<path opacity="0.1" d="M697.11 549.92C696.535 546.656 695.449 543.504 693.89 540.58L692.64 550.46C692.56 551.08 692.48 551.7 692.41 552.32C692.25 550.899 692.19 549.469 692.23 548.04C692.23 546.61 692.46 545.18 692.64 543.76L693.89 533.88C695.449 536.804 696.535 539.956 697.11 543.22C698.246 548.096 699.648 552.907 701.31 557.63C702.25 560.48 703.19 563.33 704.21 566.15C704.861 567.767 705.36 569.441 705.7 571.15C705.92 572.52 705.93 573.92 706.09 575.29C706.42 578.246 707.448 581.08 709.09 583.56C709.39 584.139 709.892 584.587 710.5 584.82C710.909 584.893 711.328 584.876 711.73 584.77C716.152 583.896 720.433 582.416 724.45 580.37C724.98 580.109 725.48 579.791 725.94 579.42C726.47 581.42 727.68 583.61 726.6 585.37C726.046 586.112 725.304 586.692 724.45 587.05C720.433 589.096 716.152 590.576 711.73 591.45C711.325 591.54 710.905 591.54 710.5 591.45C709.892 591.217 709.39 590.769 709.09 590.19C707.449 587.71 706.421 584.875 706.09 581.92C705.93 580.55 705.92 579.15 705.7 577.78C705.361 576.07 704.863 574.396 704.21 572.78C703.21 569.95 702.21 567.11 701.31 564.26C699.65 559.56 698.248 554.773 697.11 549.92V549.92Z" fill="black"/>
<path opacity="0.1" d="M696.08 577.15C696.08 577.59 696.08 578.04 696.08 578.49C696.1 578.04 696.09 577.6 696.08 577.15Z" fill="black"/>
<path opacity="0.1" d="M623.55 593.97C624.65 596.86 624.61 600.04 624.55 603.13C624.55 603.94 624.55 604.74 624.55 605.55C624.465 603.882 624.128 602.237 623.55 600.67C623.09 599.47 622.44 598.35 622.03 597.14C621.33 595.022 621.358 592.73 622.11 590.63C622.52 591.77 623.11 592.84 623.55 593.97Z" fill="black"/>
<path opacity="0.1" d="M571.06 525.96L571.63 525.22L574.63 530.22C575.84 532.454 577.321 534.53 579.04 536.4C580.79 538.275 583.174 539.433 585.73 539.65C587.341 539.634 588.936 539.329 590.44 538.75C597.44 536.4 603.79 532.67 610.44 529.49C611.619 528.806 612.94 528.402 614.3 528.31C614.99 528.297 615.665 528.508 616.224 528.912C616.784 529.316 617.196 529.891 617.4 530.55C618.16 534.38 618.91 538.2 619.95 541.96C620.943 545.52 621.86 549.09 622.7 552.67C623.264 554.868 623.665 557.104 623.9 559.36C624.01 560.64 624.02 561.93 624.03 563.21L624.18 578.74C624.181 578.968 624.161 579.196 624.12 579.42L624.03 569.91C624.03 568.62 624.03 567.34 623.9 566.06C623.665 563.804 623.264 561.568 622.7 559.37C621.847 555.79 620.93 552.22 619.95 548.66C618.95 544.9 618.16 541.08 617.4 537.24C617.196 536.582 616.783 536.008 616.223 535.606C615.664 535.203 614.989 534.994 614.3 535.01C612.922 535.084 611.58 535.478 610.38 536.16C603.76 539.34 597.38 543.07 590.38 545.41C588.878 545.997 587.282 546.305 585.67 546.32C583.114 546.103 580.73 544.945 578.98 543.07C577.263 541.198 575.782 539.122 574.57 536.89C573.36 534.84 572.14 532.8 570.92 530.75C570.24 529.61 569.33 528.29 569.71 527.01C570.268 526.827 570.746 526.456 571.06 525.96Z" fill="black"/>
</g>
<g opacity="0.1">
<path opacity="0.1" d="M622.75 433.58C622.6 432.713 622.288 431.882 621.83 431.13C622.11 431.017 622.39 430.897 622.67 430.77C622.886 431.692 622.914 432.648 622.75 433.58Z" fill="black"/>
<path opacity="0.1" d="M626.13 447.6C626.51 450.13 625.92 453.42 628.13 454.6C629.95 455.6 632.13 454.19 633.92 455.05C635.71 455.91 636.06 457.88 636.92 459.56C638.23 462.26 639.15 464.21 642.25 464.94C649.73 466.68 658.78 460.72 661.97 454.29C664.48 449.24 664.71 443.4 664.88 437.76C664.88 437.48 664.88 437.21 664.88 436.93C664.88 438.02 664.88 439.12 664.88 440.2C664.71 445.84 664.48 451.68 661.97 456.73C658.78 463.16 649.73 469.11 642.25 467.37C639.15 466.65 638.25 464.69 636.92 461.99C636.1 460.31 635.8 458.36 633.92 457.48C632.04 456.6 629.92 458.02 628.13 457.04C625.88 455.83 626.47 452.53 626.13 450.04C625.34 444.83 619.47 441.75 618.13 436.67C618.491 436.718 618.855 436.742 619.22 436.74C621.37 440.45 625.48 443.31 626.13 447.6Z" fill="black"/>
</g>
<path d="M235.44 736.24C232.688 734.756 229.723 733.707 226.65 733.13C228.88 732.819 231.081 732.324 233.23 731.65C238.94 729.84 241.82 727.42 239.66 726.23C237.5 725.04 231.11 725.54 225.4 727.35C223.472 727.91 221.629 728.727 219.92 729.78C219.33 728.53 217.73 727.08 215.22 725.7C210.15 722.91 203.33 721.51 199.99 722.56C196.65 723.61 198.06 726.73 203.14 729.56C205.62 730.893 208.271 731.879 211.02 732.49C209.195 732.714 207.385 733.048 205.6 733.49C199.39 734.98 195.79 737.24 197.6 738.49C199.41 739.74 205.87 739.62 212.09 738.13C214.352 737.637 216.542 736.861 218.61 735.82C219.12 737.11 220.75 738.65 223.39 740.1C228.46 742.88 235.28 744.29 238.62 743.24C241.96 742.19 240.51 739.02 235.44 736.24Z" fill="#3867D6"/>
<path d="M160.94 640.12C159.212 639.19 157.35 638.535 155.42 638.18C156.824 637.989 158.209 637.678 159.56 637.25C163.13 636.12 164.94 634.6 163.56 633.86C162.18 633.12 158.22 633.43 154.64 634.56C153.436 634.909 152.286 635.421 151.22 636.08C150.489 634.957 149.446 634.071 148.22 633.53C145.05 631.78 140.78 630.9 138.69 631.53C136.6 632.16 137.49 634.14 140.69 635.89C142.265 636.727 143.947 637.342 145.69 637.72C144.543 637.856 143.405 638.056 142.28 638.32C138.39 639.25 136.14 640.67 137.28 641.47C138.42 642.27 142.45 642.18 146.34 641.25C147.755 640.943 149.126 640.46 150.42 639.81C151.114 640.994 152.164 641.928 153.42 642.48C156.6 644.23 160.87 645.11 162.96 644.48C165.05 643.85 164.12 641.87 160.94 640.12Z" fill="#3867D6"/>
<path d="M771.47 787.41C789.303 787.41 803.76 784.63 803.76 781.2C803.76 777.77 789.303 774.99 771.47 774.99C753.637 774.99 739.18 777.77 739.18 781.2C739.18 784.63 753.637 787.41 771.47 787.41Z" fill="#3867D6"/>
<path d="M770.93 783.48C773.007 783.48 774.69 781.277 774.69 778.56C774.69 775.843 773.007 773.64 770.93 773.64C768.853 773.64 767.17 775.843 767.17 778.56C767.17 781.277 768.853 783.48 770.93 783.48Z" fill="#3F3D56"/>
<path d="M770.93 777.47C773.007 777.47 774.69 775.267 774.69 772.55C774.69 769.833 773.007 767.63 770.93 767.63C768.853 767.63 767.17 769.833 767.17 772.55C767.17 775.267 768.853 777.47 770.93 777.47Z" fill="#3F3D56"/>
<path d="M770.93 771.45C773.007 771.45 774.69 769.247 774.69 766.53C774.69 763.813 773.007 761.61 770.93 761.61C768.853 761.61 767.17 763.813 767.17 766.53C767.17 769.247 768.853 771.45 770.93 771.45Z" fill="#3F3D56"/>
<path d="M770.93 765.44C773.007 765.44 774.69 763.237 774.69 760.52C774.69 757.803 773.007 755.6 770.93 755.6C768.853 755.6 767.17 757.803 767.17 760.52C767.17 763.237 768.853 765.44 770.93 765.44Z" fill="#3F3D56"/>
<path d="M770.93 759.42C773.007 759.42 774.69 757.217 774.69 754.5C774.69 751.783 773.007 749.58 770.93 749.58C768.853 749.58 767.17 751.783 767.17 754.5C767.17 757.217 768.853 759.42 770.93 759.42Z" fill="#3F3D56"/>
<path d="M770.93 753.41C773.007 753.41 774.69 751.207 774.69 748.49C774.69 745.773 773.007 743.57 770.93 743.57C768.853 743.57 767.17 745.773 767.17 748.49C767.17 751.207 768.853 753.41 770.93 753.41Z" fill="#3F3D56"/>
<path d="M770.93 747.39C773.007 747.39 774.69 745.187 774.69 742.47C774.69 739.753 773.007 737.55 770.93 737.55C768.853 737.55 767.17 739.753 767.17 742.47C767.17 745.187 768.853 747.39 770.93 747.39Z" fill="#3F3D56"/>
<path d="M785 701.31C785.513 700.656 785.981 699.968 786.4 699.25L776.52 697.63L787.2 697.71C788.225 695.48 788.784 693.064 788.845 690.611C788.905 688.157 788.464 685.718 787.55 683.44L773.21 690.88L786.43 681.16C785.189 679.027 783.522 677.172 781.534 675.71C779.546 674.248 777.278 673.211 774.872 672.662C772.466 672.114 769.972 672.066 767.547 672.522C765.122 672.978 762.816 673.928 760.773 675.312C758.73 676.697 756.994 678.487 755.672 680.571C754.35 682.655 753.471 684.988 753.089 687.426C752.707 689.864 752.83 692.355 753.452 694.743C754.073 697.132 755.178 699.367 756.7 701.31C755.899 702.331 755.208 703.434 754.64 704.6L767.47 711.26L753.79 706.67C753.162 708.532 752.842 710.485 752.84 712.45C752.832 716.489 754.193 720.413 756.7 723.58C754.614 726.236 753.317 729.425 752.957 732.782C752.598 736.14 753.19 739.531 754.666 742.568C756.143 745.606 758.444 748.166 761.306 749.958C764.169 751.749 767.478 752.699 770.855 752.699C774.232 752.699 777.541 751.749 780.404 749.958C783.266 748.166 785.567 745.606 787.044 742.568C788.52 739.531 789.112 736.14 788.753 732.782C788.393 729.425 787.096 726.236 785.01 723.58C787.507 720.405 788.864 716.483 788.862 712.443C788.861 708.404 787.5 704.483 785 701.31V701.31Z" fill="#3867D6"/>
<path opacity="0.1" d="M752.84 712.44C752.832 716.48 754.193 720.403 756.7 723.57C754.614 726.226 753.317 729.415 752.957 732.772C752.598 736.13 753.19 739.521 754.666 742.559C756.143 745.596 758.444 748.156 761.306 749.948C764.169 751.739 767.478 752.689 770.855 752.689C774.232 752.689 777.541 751.739 780.404 749.948C783.266 748.156 785.567 745.596 787.044 742.559C788.52 739.521 789.112 736.13 788.753 732.772C788.393 729.415 787.096 726.226 785.01 723.57C787.42 720.51 752.84 710.42 752.84 712.44Z" fill="black"/>
<defs>
<linearGradient id="paint0_linear" x1="640.66" y1="817.51" x2="640.66" y2="420.38" gradientUnits="userSpaceOnUse">
<stop stop-color="#808080" stop-opacity="0.25"/>
<stop offset="0.54" stop-color="#808080" stop-opacity="0.12"/>
<stop offset="1" stop-color="#808080" stop-opacity="0.1"/>
</linearGradient>
</defs>
</svg>
