<svg width="37" height="36" viewBox="0 0 37 36" fill="none" xmlns="http://www.w3.org/2000/svg">
<rect width="36.4717" height="35.2" rx="3" fill="#0245C9"/>
<path d="M18.2264 6.89568V5.26855L27.7949 17.6004L18.2264 29.9323V28.3052L26.5311 17.6004L18.2264 6.89568Z" fill="white"/>
<path fill-rule="evenodd" clip-rule="evenodd" d="M20.9607 11.7774L18.3928 15.0836V16.1782L21.8109 11.7774L18.3928 7.37652V8.4711L20.9607 11.7774ZM18.2264 8.52312V6.896L22.0177 11.7774L18.2264 16.6587V15.0316L20.7539 11.7774L18.2264 8.52312Z" fill="white"/>
<path d="M18.2266 8.52312V6.896L14.4354 11.7774L18.2266 16.6587V15.0316L15.6991 11.7774L18.2266 8.52312Z" fill="white"/>
<path d="M22.0177 13.4045V11.7773L18.2264 16.6587V18.2858L22.0177 13.4045Z" fill="white"/>
<path fill-rule="evenodd" clip-rule="evenodd" d="M14.6018 13.3517L18.0603 17.7589L18.0602 16.7107L14.6018 12.2579V13.3517ZM14.4354 11.7773V13.4045L18.2266 18.2853V16.6587L14.4354 11.7773Z" fill="white"/>
<path d="M14.4346 13.4045V11.7773L9.92114 17.6007L18.2259 28.3055V26.6784L11.1849 17.6007L14.4346 13.4045Z" fill="white"/>
<path fill-rule="evenodd" clip-rule="evenodd" d="M25.474 17.6008L18.3928 26.7303V27.8245L26.3244 17.6007L22.1841 12.2587V13.3526L25.474 17.6008ZM22.0177 13.4045V11.7773L26.5311 17.6007L18.2264 28.3055V26.6784L25.2673 17.6007L22.0177 13.4045Z" fill="white"/>
<path fill-rule="evenodd" clip-rule="evenodd" d="M10.1024 17.6019L18.2266 6.89714V5.27002L8.65814 17.6019L18.2266 29.9338V28.0498L10.1024 17.6019ZM18.0602 28.1018L9.89643 17.603L18.0602 6.84609V5.75093L8.86488 17.6019L18.0602 29.4529V28.1018Z" fill="white"/>
</svg>
