<svg width="1023" height="762" viewBox="0 0 1023 762" fill="none" xmlns="http://www.w3.org/2000/svg">
<g clip-path="url(#clip0)">
<path opacity="0.1" d="M174.8 110.92C169.32 116.64 167.21 124.7 164.85 132.27C145.85 193.27 99.0301 242.34 45.7101 277.4C23.1301 292.25 -4.35989 312.16 0.580111 338.77C3.24011 353.07 14.9101 363.59 23.5801 375.23C32.6064 387.542 38.6899 401.759 41.3631 416.789C44.0362 431.819 43.2279 447.261 39.0001 461.93C29.1401 495.14 1.58012 526.12 10.1101 559.7C15.3701 580.4 33.2301 595.08 50.4001 607.7C77.1868 627.413 104.827 645.877 133.32 663.09C152.42 674.63 172.74 685.86 195 687.32C214.6 688.61 233.8 682.2 252.41 675.86C268.67 670.33 285.34 664.56 298.47 653.47C307.04 646.23 313.87 636.89 323.39 630.96C345.75 617.04 374.47 625.86 400.11 631.79C461.095 645.737 524.886 640.705 582.93 617.37C671.24 581.63 738.55 506.58 824.93 466.31C862.07 448.99 902.47 438.24 936.86 415.94C955.806 403.639 972.456 388.123 986.06 370.09C1012.06 335.54 1026.12 291.5 1022.06 248.4C1018 205.3 995.25 163.75 959.52 139.4C921.27 113.4 872.96 108.49 829.44 92.8401C784.5 76.6901 744.52 48.9101 700.01 31.5901C627.24 3.31011 543.38 4.95011 471.73 36.0801C423.29 57.1401 374.19 106.37 320.24 110.08C281.8 112.71 204.81 79.5401 174.8 110.92Z" fill="#3867D6"/>
<path opacity="0.03" d="M133.46 392.29C156.01 392.29 174.29 389.537 174.29 386.14C174.29 382.744 156.01 379.99 133.46 379.99C110.91 379.99 92.6299 382.744 92.6299 386.14C92.6299 389.537 110.91 392.29 133.46 392.29Z" fill="black"/>
<path d="M654.38 360.69C647.258 360.62 640.139 361.061 633.08 362.01V362.01C633.08 360.653 632.541 359.352 631.582 358.393C630.623 357.434 629.322 356.895 627.965 356.895C626.608 356.895 625.307 357.434 624.348 358.393C623.389 359.352 622.85 360.653 622.85 362.01V362.01C615.791 361.061 608.672 360.62 601.55 360.69C585.78 360.69 573 362.45 573 364.63C573 366.81 585.8 368.54 601.57 368.54C608.692 368.61 615.811 368.169 622.87 367.22C622.87 367.851 622.982 368.478 623.2 369.07C622.735 369.371 622.347 369.777 622.067 370.255C621.788 370.733 621.625 371.271 621.592 371.824C621.559 372.377 621.657 372.93 621.877 373.438C622.097 373.947 622.434 374.396 622.86 374.75C621.609 375.195 620.465 375.896 619.501 376.809C618.536 377.722 617.773 378.826 617.26 380.05C615.857 378.945 614.144 378.305 612.36 378.22L559.3 375.78C557.402 373.14 554.906 370.987 552.015 369.499C549.124 368.011 545.921 367.23 542.67 367.22H509.22C505.945 367.231 502.719 368.025 499.813 369.535C496.906 371.044 494.402 373.227 492.51 375.9L442.09 378.22C440.439 378.297 438.845 378.849 437.5 379.81C436.522 377.642 434.772 375.916 432.59 374.97C433.069 374.646 433.461 374.21 433.731 373.699C434.002 373.188 434.142 372.618 434.14 372.04C434.144 371.312 433.919 370.601 433.498 370.007C433.076 369.413 432.479 368.966 431.79 368.73C431.934 368.243 432.008 367.738 432.01 367.23V367.23C439.069 368.179 446.188 368.62 453.31 368.55C469.08 368.55 481.86 366.79 481.86 364.61C481.86 362.43 469.08 360.67 453.31 360.67C446.188 360.6 439.069 361.041 432.01 361.99V361.99C432.029 360.615 431.501 359.289 430.543 358.303C429.585 357.317 428.275 356.751 426.9 356.73V356.73C425.525 356.751 424.215 357.317 423.257 358.303C422.299 359.289 421.771 360.615 421.79 361.99V361.99C414.731 361.041 407.612 360.6 400.49 360.67C384.72 360.67 371.94 362.43 371.94 364.61C371.94 366.79 384.7 368.54 400.47 368.54C407.592 368.61 414.711 368.169 421.77 367.22V367.22C421.77 367.851 421.882 368.478 422.1 369.07C421.623 369.379 421.228 369.799 420.948 370.294C420.668 370.788 420.511 371.343 420.491 371.91C420.47 372.478 420.586 373.043 420.83 373.556C421.074 374.07 421.437 374.517 421.89 374.86C420.09 375.577 418.547 376.819 417.461 378.424C416.375 380.028 415.797 381.922 415.8 383.86V390.34C415.783 391.594 416.013 392.839 416.477 394.005C416.941 395.17 417.63 396.232 418.505 397.131C419.38 398.03 420.423 398.748 421.575 399.243C422.727 399.739 423.966 400.003 425.22 400.02H428.97C430.448 400.015 431.904 399.657 433.217 398.977C434.53 398.297 435.662 397.314 436.52 396.11C438.058 397.594 440.093 398.453 442.23 398.52L491.67 399.94C493.237 402.489 495.326 404.677 497.8 406.36C493.07 411.3 474.61 433.22 477.58 471.85C477.58 471.85 480.58 477.54 488.23 471.85C488.23 471.85 483.33 428.85 510.77 411.09C511.215 412.447 512.075 413.631 513.229 414.474C514.382 415.317 515.771 415.778 517.2 415.79H520.7C517.244 417.227 514.295 419.661 512.229 422.782C510.163 425.902 509.073 429.568 509.1 433.31C509.019 435.767 509.433 438.215 510.317 440.508C511.201 442.802 512.537 444.894 514.246 446.661C515.956 448.427 518.003 449.832 520.266 450.792C522.529 451.751 524.962 452.245 527.42 452.245C529.878 452.245 532.311 451.751 534.574 450.792C536.837 449.832 538.884 448.427 540.594 446.661C542.303 444.894 543.639 442.802 544.523 440.508C545.407 438.215 545.821 435.767 545.74 433.31C545.766 429.568 544.677 425.902 542.611 422.782C540.545 419.661 537.596 417.227 534.14 415.79H537.64C539.069 415.778 540.457 415.317 541.611 414.474C542.764 413.631 543.624 412.447 544.07 411.09C571.51 428.82 566.61 471.85 566.61 471.85C574.28 477.54 577.26 471.85 577.26 471.85C580.67 427.62 555.96 405.28 555.96 405.28H555.51C557.334 403.795 558.898 402.017 560.14 400.02L612.14 398.52C614.411 398.461 616.567 397.509 618.14 395.87C618.989 397.142 620.139 398.187 621.487 398.91C622.835 399.634 624.34 400.015 625.87 400.02H629.62C630.874 400.003 632.113 399.739 633.265 399.243C634.417 398.748 635.46 398.03 636.335 397.131C637.21 396.232 637.899 395.17 638.363 394.005C638.827 392.839 639.057 391.594 639.04 390.34V383.86C639.05 382.009 638.53 380.194 637.542 378.629C636.553 377.064 635.136 375.815 633.46 375.03C634.037 374.691 634.506 374.194 634.811 373.598C635.116 373.001 635.244 372.331 635.181 371.664C635.118 370.997 634.866 370.363 634.455 369.834C634.044 369.305 633.491 368.905 632.86 368.68C633.004 368.193 633.078 367.688 633.08 367.18V367.18C640.138 368.142 647.257 368.596 654.38 368.54C670.15 368.54 682.93 366.78 682.93 364.6C682.93 362.42 670.16 360.69 654.38 360.69Z" fill="url(#paint0_linear)"/>
<path d="M525.99 450.14C535.799 450.14 543.75 442.189 543.75 432.38C543.75 422.572 535.799 414.62 525.99 414.62C516.181 414.62 508.23 422.572 508.23 432.38C508.23 442.189 516.181 450.14 525.99 450.14Z" fill="#3867D6"/>
<path d="M525.99 444.36C532.606 444.36 537.97 438.996 537.97 432.38C537.97 425.764 532.606 420.4 525.99 420.4C519.373 420.4 514.01 425.764 514.01 432.38C514.01 438.996 519.373 444.36 525.99 444.36Z" fill="#3867D6"/>
<path opacity="0.2" d="M525.99 444.36C532.606 444.36 537.97 438.996 537.97 432.38C537.97 425.764 532.606 420.4 525.99 420.4C519.373 420.4 514.01 425.764 514.01 432.38C514.01 438.996 519.373 444.36 525.99 444.36Z" fill="#F5F5F5"/>
<path d="M525.99 440.23C530.326 440.23 533.84 436.715 533.84 432.38C533.84 428.044 530.326 424.53 525.99 424.53C521.655 424.53 518.14 428.044 518.14 432.38C518.14 436.715 521.655 440.23 525.99 440.23Z" fill="#3867D6"/>
<path opacity="0.25" d="M525.99 440.23C530.326 440.23 533.84 436.715 533.84 432.38C533.84 428.044 530.326 424.53 525.99 424.53C521.655 424.53 518.14 428.044 518.14 432.38C518.14 436.715 521.655 440.23 525.99 440.23Z" fill="black"/>
<path d="M498.31 405.94C498.31 405.94 474.31 427.01 477.66 468.72C477.66 468.72 480.55 474.09 487.99 468.72C487.99 468.72 481.79 415.85 523.1 405.94H498.31Z" fill="#3867D6"/>
<path d="M553.66 405.94C553.66 405.94 577.66 427.01 574.31 468.72C574.31 468.72 571.42 474.09 563.98 468.72C563.98 468.72 570.18 415.85 528.87 405.94H553.66Z" fill="#3867D6"/>
<path d="M543.95 370.01H505.15C495.789 370.01 488.2 377.599 488.2 386.96V393.33C488.2 402.691 495.789 410.28 505.15 410.28H543.95C553.311 410.28 560.9 402.691 560.9 393.33V386.96C560.9 377.599 553.311 370.01 543.95 370.01Z" fill="#3867D6"/>
<path d="M500.1 401.15L443.38 399.54C441.166 399.478 439.065 398.555 437.52 396.968C435.976 395.381 435.112 393.254 435.11 391.04V388.86C435.11 386.669 435.956 384.563 437.47 382.979C438.984 381.396 441.051 380.458 443.24 380.36L499.96 377.82C501.108 377.769 502.255 377.95 503.331 378.354C504.407 378.758 505.39 379.376 506.221 380.171C507.052 380.965 507.713 381.919 508.165 382.976C508.617 384.033 508.85 385.171 508.85 386.32V392.63C508.852 393.769 508.625 394.897 508.183 395.946C507.741 396.996 507.093 397.946 506.277 398.74C505.461 399.535 504.494 400.158 503.433 400.572C502.372 400.985 501.238 401.182 500.1 401.15V401.15Z" fill="#3867D6"/>
<path d="M551.46 401.15L608.18 399.54C610.393 399.478 612.495 398.555 614.039 396.968C615.583 395.381 616.448 393.254 616.45 391.04V388.86C616.45 386.669 615.604 384.563 614.09 382.979C612.575 381.396 610.509 380.458 608.32 380.36L551.6 377.82C550.452 377.769 549.305 377.95 548.229 378.354C547.153 378.758 546.17 379.376 545.339 380.171C544.508 380.965 543.847 381.919 543.395 382.976C542.943 384.033 542.71 385.171 542.71 386.32V392.63C542.708 393.769 542.935 394.897 543.377 395.946C543.819 396.996 544.467 397.946 545.283 398.74C546.099 399.535 547.066 400.158 548.127 400.572C549.188 400.985 550.322 401.182 551.46 401.15V401.15Z" fill="#3867D6"/>
<path opacity="0.2" d="M500.1 401.15L443.38 399.54C441.166 399.478 439.065 398.555 437.52 396.968C435.976 395.381 435.112 393.254 435.11 391.04V388.86C435.11 386.669 435.956 384.563 437.47 382.979C438.984 381.396 441.051 380.458 443.24 380.36L499.96 377.82C501.108 377.769 502.255 377.95 503.331 378.354C504.407 378.758 505.39 379.376 506.221 380.171C507.052 380.965 507.713 381.919 508.165 382.976C508.617 384.033 508.85 385.171 508.85 386.32V392.63C508.852 393.769 508.625 394.897 508.183 395.946C507.741 396.996 507.093 397.946 506.277 398.74C505.461 399.535 504.494 400.158 503.433 400.572C502.372 400.985 501.238 401.182 500.1 401.15V401.15Z" fill="#F5F5F5"/>
<path opacity="0.2" d="M551.46 401.15L608.18 399.54C610.393 399.478 612.495 398.555 614.039 396.968C615.583 395.381 616.448 393.254 616.45 391.04V388.86C616.45 386.669 615.604 384.563 614.09 382.979C612.575 381.396 610.509 380.458 608.32 380.36L551.6 377.82C550.452 377.769 549.305 377.95 548.229 378.354C547.153 378.758 546.17 379.376 545.339 380.171C544.508 380.965 543.847 381.919 543.395 382.976C542.943 384.033 542.71 385.171 542.71 386.32V392.63C542.708 393.769 542.935 394.897 543.377 395.946C543.819 396.996 544.467 397.946 545.283 398.74C546.099 399.535 547.066 400.158 548.127 400.572C549.188 400.985 550.322 401.182 551.46 401.15V401.15Z" fill="#F5F5F5"/>
<path d="M430.45 376.62H426.98C421.893 376.62 417.77 380.744 417.77 385.83V391.78C417.77 396.867 421.893 400.99 426.98 400.99H430.45C435.537 400.99 439.66 396.867 439.66 391.78V385.83C439.66 380.744 435.537 376.62 430.45 376.62Z" fill="#3867D6"/>
<path d="M625 376.62H621.53C616.443 376.62 612.32 380.744 612.32 385.83V391.78C612.32 396.867 616.443 400.99 621.53 400.99H625C630.086 400.99 634.21 396.867 634.21 391.78V385.83C634.21 380.744 630.086 376.62 625 376.62Z" fill="#3867D6"/>
<path d="M432.75 371.25H425.09C423.555 371.25 422.31 372.495 422.31 374.03V375.08C422.31 376.615 423.555 377.86 425.09 377.86H432.75C434.285 377.86 435.53 376.615 435.53 375.08V374.03C435.53 372.495 434.285 371.25 432.75 371.25Z" fill="#3867D6"/>
<path d="M429.29 360.1H427.72C425.417 360.1 423.55 361.967 423.55 364.27V370.8C423.55 373.103 425.417 374.97 427.72 374.97H429.29C431.593 374.97 433.46 373.103 433.46 370.8V364.27C433.46 361.967 431.593 360.1 429.29 360.1Z" fill="#3867D6"/>
<path d="M402.9 371.25C418.182 371.25 430.57 369.585 430.57 367.53C430.57 365.476 418.182 363.81 402.9 363.81C387.618 363.81 375.23 365.476 375.23 367.53C375.23 369.585 387.618 371.25 402.9 371.25Z" fill="#3867D6"/>
<path d="M454.12 371.25C469.402 371.25 481.79 369.585 481.79 367.53C481.79 365.476 469.402 363.81 454.12 363.81C438.838 363.81 426.45 365.476 426.45 367.53C426.45 369.585 438.838 371.25 454.12 371.25Z" fill="#3867D6"/>
<path d="M627.72 371.25H620.06C618.525 371.25 617.28 372.495 617.28 374.03V375.08C617.28 376.615 618.525 377.86 620.06 377.86H627.72C629.256 377.86 630.5 376.615 630.5 375.08V374.03C630.5 372.495 629.256 371.25 627.72 371.25Z" fill="#3867D6"/>
<path d="M624.26 360.1H622.69C620.387 360.1 618.52 361.967 618.52 364.27V370.8C618.52 373.103 620.387 374.97 622.69 374.97H624.26C626.563 374.97 628.43 373.103 628.43 370.8V364.27C628.43 361.967 626.563 360.1 624.26 360.1Z" fill="#3867D6"/>
<path d="M597.86 371.25C613.142 371.25 625.53 369.585 625.53 367.53C625.53 365.476 613.142 363.81 597.86 363.81C582.578 363.81 570.19 365.476 570.19 367.53C570.19 369.585 582.578 371.25 597.86 371.25Z" fill="#3867D6"/>
<path d="M649.08 371.25C664.362 371.25 676.75 369.585 676.75 367.53C676.75 365.476 664.362 363.81 649.08 363.81C633.798 363.81 621.41 365.476 621.41 367.53C621.41 369.585 633.798 371.25 649.08 371.25Z" fill="#3867D6"/>
<path opacity="0.2" d="M402.9 371.25C418.182 371.25 430.57 369.585 430.57 367.53C430.57 365.476 418.182 363.81 402.9 363.81C387.618 363.81 375.23 365.476 375.23 367.53C375.23 369.585 387.618 371.25 402.9 371.25Z" fill="#F5F5F5"/>
<path opacity="0.2" d="M454.12 371.25C469.402 371.25 481.79 369.585 481.79 367.53C481.79 365.476 469.402 363.81 454.12 363.81C438.838 363.81 426.45 365.476 426.45 367.53C426.45 369.585 438.838 371.25 454.12 371.25Z" fill="#F5F5F5"/>
<path opacity="0.2" d="M597.86 371.25C613.142 371.25 625.53 369.585 625.53 367.53C625.53 365.476 613.142 363.81 597.86 363.81C582.578 363.81 570.19 365.476 570.19 367.53C570.19 369.585 582.578 371.25 597.86 371.25Z" fill="#F5F5F5"/>
<path opacity="0.2" d="M649.08 371.25C664.362 371.25 676.75 369.585 676.75 367.53C676.75 365.476 664.362 363.81 649.08 363.81C633.798 363.81 621.41 365.476 621.41 367.53C621.41 369.585 633.798 371.25 649.08 371.25Z" fill="#F5F5F5"/>
<path d="M536.95 402.64H515.03C511.96 402.64 509.47 405.129 509.47 408.2V410.3C509.47 413.371 511.96 415.86 515.03 415.86H536.95C540.021 415.86 542.51 413.371 542.51 410.3V408.2C542.51 405.129 540.021 402.64 536.95 402.64Z" fill="#3867D6"/>
<path opacity="0.2" d="M536.95 402.64H515.03C511.96 402.64 509.47 405.129 509.47 408.2V410.3C509.47 413.371 511.96 415.86 515.03 415.86H536.95C540.021 415.86 542.51 413.371 542.51 410.3V408.2C542.51 405.129 540.021 402.64 536.95 402.64Z" fill="#F5F5F5"/>
<g opacity="0.5">
<path opacity="0.5" d="M191.63 311.46C188.38 311.428 185.132 311.628 181.91 312.06C181.91 311.442 181.665 310.85 181.228 310.413C180.791 309.976 180.198 309.73 179.58 309.73C178.962 309.73 178.369 309.976 177.932 310.413C177.496 310.85 177.25 311.442 177.25 312.06V312.06C174.029 311.628 170.78 311.428 167.53 311.46C160.34 311.46 154.53 312.26 154.53 313.26C154.53 314.26 160.36 315.06 167.53 315.06C170.78 315.093 174.029 314.892 177.25 314.46C177.251 314.747 177.301 315.031 177.4 315.3C177.188 315.438 177.012 315.623 176.885 315.842C176.758 316.06 176.684 316.305 176.67 316.557C176.655 316.809 176.7 317.061 176.801 317.293C176.902 317.524 177.056 317.729 177.25 317.89C176.678 318.093 176.155 318.413 175.714 318.829C175.273 319.246 174.924 319.751 174.69 320.31C174.048 319.807 173.265 319.517 172.45 319.48L148.25 318.36C147.384 317.158 146.246 316.177 144.929 315.499C143.611 314.822 142.152 314.465 140.67 314.46H125.38C123.883 314.47 122.41 314.839 121.084 315.535C119.759 316.231 118.619 317.234 117.76 318.46L94.76 319.52C94.0076 319.557 93.2818 319.811 92.67 320.25C92.2245 319.26 91.4258 318.472 90.43 318.04C90.6493 317.892 90.8288 317.693 90.9527 317.459C91.0765 317.225 91.1409 316.965 91.14 316.7C91.1416 316.368 91.0393 316.044 90.8474 315.773C90.6555 315.503 90.3837 315.299 90.07 315.19C90.136 314.966 90.1696 314.734 90.17 314.5V314.5C93.3915 314.932 96.6399 315.133 99.89 315.1C107.08 315.1 112.89 314.3 112.89 313.3C112.89 312.3 107.06 311.5 99.89 311.5C96.6399 311.468 93.3915 311.668 90.17 312.1V312.1C90.1781 311.473 89.9374 310.869 89.5007 310.419C89.064 309.969 88.4669 309.711 87.84 309.7C87.2132 309.711 86.6161 309.969 86.1794 310.419C85.7427 310.869 85.502 311.473 85.51 312.1V312.1C82.2885 311.668 79.0402 311.468 75.79 311.5C68.6 311.5 62.79 312.3 62.79 313.3C62.79 314.3 68.62 315.1 75.79 315.1C79.0402 315.133 82.2885 314.932 85.51 314.5C85.5105 314.787 85.5613 315.071 85.66 315.34C85.4423 315.481 85.2619 315.673 85.1341 315.898C85.0063 316.124 84.935 316.377 84.9261 316.637C84.9173 316.896 84.9712 317.154 85.0833 317.387C85.1954 317.621 85.3624 317.825 85.57 317.98C84.7446 318.309 84.0376 318.878 83.5415 319.615C83.0455 320.352 82.7835 321.222 82.79 322.11V325.11C82.7821 325.683 82.887 326.251 83.0988 326.783C83.3107 327.315 83.6252 327.8 84.0245 328.211C84.4238 328.621 84.9001 328.949 85.426 329.175C85.952 329.402 86.5175 329.522 87.09 329.53H88.8C89.4734 329.527 90.1365 329.364 90.7346 329.055C91.3327 328.745 91.8487 328.298 92.24 327.75C92.9405 328.426 93.867 328.818 94.84 328.85L117.39 329.5C118.106 330.664 119.06 331.662 120.19 332.43C118.03 334.68 109.61 344.68 110.97 362.3C110.97 362.3 112.33 364.9 115.83 362.3C115.83 362.3 113.59 342.67 126.11 334.58C126.313 335.2 126.704 335.74 127.23 336.126C127.755 336.511 128.388 336.723 129.04 336.73H130.64C129.063 337.386 127.717 338.498 126.775 339.923C125.832 341.348 125.336 343.022 125.35 344.73C125.311 345.852 125.499 346.97 125.901 348.017C126.303 349.065 126.913 350.02 127.692 350.828C128.472 351.635 129.406 352.277 130.439 352.715C131.472 353.153 132.583 353.379 133.705 353.379C134.827 353.379 135.938 353.153 136.971 352.715C138.004 352.277 138.938 351.635 139.718 350.828C140.497 350.02 141.107 349.065 141.509 348.017C141.911 346.97 142.099 345.852 142.06 344.73C142.074 343.022 141.578 341.348 140.635 339.923C139.693 338.498 138.347 337.386 136.77 336.73H138.38C139.032 336.723 139.665 336.511 140.19 336.126C140.716 335.74 141.107 335.2 141.31 334.58C153.83 342.67 151.59 362.3 151.59 362.3C155.09 364.9 156.45 362.3 156.45 362.3C158 342.12 146.73 331.94 146.73 331.94H146.53C147.361 331.262 148.074 330.451 148.64 329.54L172.38 328.86C173.41 328.828 174.386 328.394 175.1 327.65C175.488 328.229 176.011 328.704 176.625 329.033C177.238 329.363 177.923 329.537 178.62 329.54H180.38C180.953 329.532 181.518 329.412 182.044 329.185C182.57 328.959 183.046 328.631 183.446 328.221C183.845 327.81 184.159 327.325 184.371 326.793C184.583 326.261 184.688 325.693 184.68 325.12V322.12C184.68 321.281 184.441 320.459 183.991 319.751C183.542 319.043 182.899 318.477 182.14 318.12C182.406 317.967 182.623 317.74 182.764 317.467C182.904 317.194 182.963 316.886 182.934 316.58C182.904 316.274 182.787 315.983 182.597 315.742C182.407 315.501 182.151 315.32 181.86 315.22C181.926 314.996 181.96 314.764 181.96 314.53V314.53C185.182 314.962 188.43 315.163 191.68 315.13C198.87 315.13 204.68 314.33 204.68 313.33C204.68 312.33 198.82 311.46 191.63 311.46Z" fill="url(#paint1_linear)"/>
<path opacity="0.5" d="M133.06 352.27C137.533 352.27 141.16 348.644 141.16 344.17C141.16 339.697 137.533 336.07 133.06 336.07C128.586 336.07 124.96 339.697 124.96 344.17C124.96 348.644 128.586 352.27 133.06 352.27Z" fill="#3867D6"/>
<path opacity="0.5" d="M133.06 349.63C136.076 349.63 138.52 347.185 138.52 344.17C138.52 341.155 136.076 338.71 133.06 338.71C130.045 338.71 127.6 341.155 127.6 344.17C127.6 347.185 130.045 349.63 133.06 349.63Z" fill="#3867D6"/>
<path opacity="0.2" d="M133.06 349.63C136.076 349.63 138.52 347.185 138.52 344.17C138.52 341.155 136.076 338.71 133.06 338.71C130.045 338.71 127.6 341.155 127.6 344.17C127.6 347.185 130.045 349.63 133.06 349.63Z" fill="#F5F5F5"/>
<path opacity="0.5" d="M133.06 347.75C135.037 347.75 136.64 346.148 136.64 344.17C136.64 342.193 135.037 340.59 133.06 340.59C131.083 340.59 129.48 342.193 129.48 344.17C129.48 346.148 131.083 347.75 133.06 347.75Z" fill="#3867D6"/>
<path opacity="0.25" d="M133.06 347.75C135.037 347.75 136.64 346.148 136.64 344.17C136.64 342.193 135.037 340.59 133.06 340.59C131.083 340.59 129.48 342.193 129.48 344.17C129.48 346.148 131.083 347.75 133.06 347.75Z" fill="black"/>
<path opacity="0.5" d="M120.43 332.1C120.43 332.1 109.5 341.71 111.01 360.74C111.01 360.74 112.33 363.19 115.72 360.74C115.72 360.74 112.89 336.62 131.72 332.1H120.43Z" fill="#3867D6"/>
<path opacity="0.5" d="M145.68 332.1C145.68 332.1 156.61 341.71 155.1 360.74C155.1 360.74 153.78 363.19 150.39 360.74C150.39 360.74 153.22 336.62 134.39 332.1H145.68Z" fill="#3867D6"/>
<path opacity="0.5" d="M141.25 315.72H123.55C119.281 315.72 115.82 319.181 115.82 323.45V326.36C115.82 330.629 119.281 334.09 123.55 334.09H141.25C145.519 334.09 148.98 330.629 148.98 326.36V323.45C148.98 319.181 145.519 315.72 141.25 315.72Z" fill="#3867D6"/>
<path opacity="0.5" d="M121.25 329.92L95.3799 329.2C94.37 329.171 93.4112 328.75 92.7071 328.026C92.0031 327.301 91.6095 326.33 91.6099 325.32V324.32C91.6089 323.32 91.9943 322.358 92.6855 321.635C93.3768 320.912 94.3206 320.484 95.3199 320.44L121.19 319.28C121.714 319.257 122.236 319.341 122.727 319.525C123.217 319.71 123.666 319.992 124.044 320.355C124.422 320.717 124.724 321.153 124.929 321.635C125.135 322.117 125.24 322.636 125.24 323.16V326.04C125.24 326.559 125.136 327.073 124.934 327.551C124.733 328.029 124.437 328.462 124.065 328.823C123.693 329.185 123.252 329.469 122.768 329.657C122.285 329.845 121.769 329.935 121.25 329.92Z" fill="#3867D6"/>
<path opacity="0.5" d="M144.67 329.92L170.54 329.2C171.55 329.171 172.509 328.75 173.213 328.026C173.917 327.301 174.311 326.33 174.31 325.32V324.32C174.311 323.32 173.926 322.358 173.234 321.635C172.543 320.912 171.599 320.484 170.6 320.44L144.73 319.28C144.207 319.257 143.684 319.341 143.193 319.525C142.703 319.71 142.255 319.992 141.876 320.355C141.498 320.717 141.196 321.153 140.991 321.635C140.785 322.117 140.68 322.636 140.68 323.16V326.04C140.68 326.559 140.784 327.073 140.986 327.551C141.188 328.029 141.483 328.462 141.855 328.823C142.227 329.185 142.668 329.469 143.152 329.657C143.635 329.845 144.151 329.935 144.67 329.92V329.92Z" fill="#3867D6"/>
<path opacity="0.2" d="M121.25 329.92L95.3799 329.2C94.37 329.171 93.4112 328.75 92.7071 328.026C92.0031 327.301 91.6095 326.33 91.6099 325.32V324.32C91.6089 323.32 91.9943 322.358 92.6855 321.635C93.3768 320.912 94.3206 320.484 95.3199 320.44L121.19 319.28C121.714 319.257 122.236 319.341 122.727 319.525C123.217 319.71 123.666 319.992 124.044 320.355C124.422 320.717 124.724 321.153 124.929 321.635C125.135 322.117 125.24 322.636 125.24 323.16V326.04C125.24 326.559 125.136 327.073 124.934 327.551C124.733 328.029 124.437 328.462 124.065 328.823C123.693 329.185 123.252 329.469 122.768 329.657C122.285 329.845 121.769 329.935 121.25 329.92Z" fill="#F5F5F5"/>
<path opacity="0.2" d="M144.67 329.92L170.54 329.2C171.55 329.171 172.509 328.75 173.213 328.026C173.917 327.301 174.311 326.33 174.31 325.32V324.32C174.311 323.32 173.926 322.358 173.234 321.635C172.543 320.912 171.599 320.484 170.6 320.44L144.73 319.28C144.207 319.257 143.684 319.341 143.193 319.525C142.703 319.71 142.255 319.992 141.876 320.355C141.498 320.717 141.196 321.153 140.991 321.635C140.785 322.117 140.68 322.636 140.68 323.16V326.04C140.68 326.559 140.784 327.073 140.986 327.551C141.188 328.029 141.483 328.462 141.855 328.823C142.227 329.185 142.668 329.469 143.152 329.657C143.635 329.845 144.151 329.935 144.67 329.92V329.92Z" fill="#F5F5F5"/>
<path opacity="0.5" d="M89.4799 318.73H87.8899C85.5703 318.73 83.6899 320.61 83.6899 322.93V325.65C83.6899 327.97 85.5703 329.85 87.8899 329.85H89.4799C91.7995 329.85 93.6799 327.97 93.6799 325.65V322.93C93.6799 320.61 91.7995 318.73 89.4799 318.73Z" fill="#3867D6"/>
<path opacity="0.5" d="M178.22 318.73H176.63C174.311 318.73 172.43 320.61 172.43 322.93V325.65C172.43 327.97 174.311 329.85 176.63 329.85H178.22C180.54 329.85 182.42 327.97 182.42 325.65V322.93C182.42 320.61 180.54 318.73 178.22 318.73Z" fill="#3867D6"/>
<path opacity="0.5" d="M90.5202 316.28H87.0303C86.3288 316.28 85.7603 316.849 85.7603 317.55V318.02C85.7603 318.722 86.3288 319.29 87.0303 319.29H90.5202C91.2217 319.29 91.7903 318.722 91.7903 318.02V317.55C91.7903 316.849 91.2217 316.28 90.5202 316.28Z" fill="#3867D6"/>
<path opacity="0.5" d="M88.9501 311.2H88.2301C87.1807 311.2 86.3301 312.051 86.3301 313.1V316.08C86.3301 317.13 87.1807 317.98 88.2301 317.98H88.9501C89.9994 317.98 90.8501 317.13 90.8501 316.08V313.1C90.8501 312.051 89.9994 311.2 88.9501 311.2Z" fill="#3867D6"/>
<path opacity="0.5" d="M76.91 316.29C83.8799 316.29 89.53 315.529 89.53 314.59C89.53 313.651 83.8799 312.89 76.91 312.89C69.9402 312.89 64.29 313.651 64.29 314.59C64.29 315.529 69.9402 316.29 76.91 316.29Z" fill="#3867D6"/>
<path opacity="0.5" d="M100.27 316.29C107.24 316.29 112.89 315.529 112.89 314.59C112.89 313.651 107.24 312.89 100.27 312.89C93.3001 312.89 87.6499 313.651 87.6499 314.59C87.6499 315.529 93.3001 316.29 100.27 316.29Z" fill="#3867D6"/>
<path opacity="0.5" d="M179.45 316.28H175.96C175.259 316.28 174.69 316.849 174.69 317.55V318.02C174.69 318.722 175.259 319.29 175.96 319.29H179.45C180.151 319.29 180.72 318.722 180.72 318.02V317.55C180.72 316.849 180.151 316.28 179.45 316.28Z" fill="#3867D6"/>
<path opacity="0.5" d="M177.88 311.2H177.16C176.111 311.2 175.26 312.051 175.26 313.1V316.08C175.26 317.13 176.111 317.98 177.16 317.98H177.88C178.93 317.98 179.78 317.13 179.78 316.08V313.1C179.78 312.051 178.93 311.2 177.88 311.2Z" fill="#3867D6"/>
<path opacity="0.5" d="M165.84 316.29C172.81 316.29 178.46 315.529 178.46 314.59C178.46 313.651 172.81 312.89 165.84 312.89C158.87 312.89 153.22 313.651 153.22 314.59C153.22 315.529 158.87 316.29 165.84 316.29Z" fill="#3867D6"/>
<path opacity="0.5" d="M189.2 316.29C196.17 316.29 201.82 315.529 201.82 314.59C201.82 313.651 196.17 312.89 189.2 312.89C182.23 312.89 176.58 313.651 176.58 314.59C176.58 315.529 182.23 316.29 189.2 316.29Z" fill="#3867D6"/>
<path opacity="0.2" d="M76.91 316.29C83.8799 316.29 89.53 315.529 89.53 314.59C89.53 313.651 83.8799 312.89 76.91 312.89C69.9402 312.89 64.29 313.651 64.29 314.59C64.29 315.529 69.9402 316.29 76.91 316.29Z" fill="#F5F5F5"/>
<path opacity="0.2" d="M100.27 316.29C107.24 316.29 112.89 315.529 112.89 314.59C112.89 313.651 107.24 312.89 100.27 312.89C93.3001 312.89 87.6499 313.651 87.6499 314.59C87.6499 315.529 93.3001 316.29 100.27 316.29Z" fill="#F5F5F5"/>
<path opacity="0.2" d="M165.84 316.29C172.81 316.29 178.46 315.529 178.46 314.59C178.46 313.651 172.81 312.89 165.84 312.89C158.87 312.89 153.22 313.651 153.22 314.59C153.22 315.529 158.87 316.29 165.84 316.29Z" fill="#F5F5F5"/>
<path opacity="0.2" d="M189.2 316.29C196.17 316.29 201.82 315.529 201.82 314.59C201.82 313.651 196.17 312.89 189.2 312.89C182.23 312.89 176.58 313.651 176.58 314.59C176.58 315.529 182.23 316.29 189.2 316.29Z" fill="#F5F5F5"/>
<path opacity="0.5" d="M138.05 330.6H128.06C126.657 330.6 125.52 331.737 125.52 333.14V334.09C125.52 335.493 126.657 336.63 128.06 336.63H138.05C139.453 336.63 140.59 335.493 140.59 334.09V333.14C140.59 331.737 139.453 330.6 138.05 330.6Z" fill="#3867D6"/>
<path opacity="0.2" d="M138.05 330.6H128.06C126.657 330.6 125.52 331.737 125.52 333.14V334.09C125.52 335.493 126.657 336.63 128.06 336.63H138.05C139.453 336.63 140.59 335.493 140.59 334.09V333.14C140.59 331.737 139.453 330.6 138.05 330.6Z" fill="#F5F5F5"/>
</g>
<path opacity="0.03" d="M538.74 547.89C584.419 547.89 621.45 542.311 621.45 535.43C621.45 528.548 584.419 522.97 538.74 522.97C493.06 522.97 456.03 528.548 456.03 535.43C456.03 542.311 493.06 547.89 538.74 547.89Z" fill="black"/>
<path opacity="0.1" d="M767.74 761.09C902.089 761.09 1011 744.677 1011 724.43C1011 704.183 902.089 687.77 767.74 687.77C633.391 687.77 524.48 704.183 524.48 724.43C524.48 744.677 633.391 761.09 767.74 761.09Z" fill="#3867D6"/>
<path d="M411.6 95.7202C408.77 91.1002 404.54 86.8702 405.2 81.6302C412.96 82.5202 420.32 80.6302 427.43 77.3502C434.54 74.0702 441.14 69.7802 447.79 65.5902C450.41 63.9402 453.02 62.3202 455.62 60.8202C459.74 58.4502 463.83 55.8202 468.02 53.5102C474.02 50.2102 480.15 47.5102 486.88 46.9902C488.09 46.9002 489.32 46.8802 490.55 46.9002C498.85 47.0702 507.45 49.2902 514.75 45.5702L515.2 45.3302C519.33 43.0602 522.35 39.1902 525.9 36.0702C528.452 33.8625 531.231 31.9317 534.19 30.3102C539.57 27.3102 545.41 24.9102 550.93 22.0802C552.338 21.346 553.677 20.4859 554.93 19.5102L555.87 18.7602L556.08 18.5802L556.76 18.0002L557.19 17.6202L557.63 17.2202L557.97 16.9002L558.52 16.3802L558.58 16.3202L559.46 15.4502L559.81 15.1002L560.42 14.4802L560.78 14.1102L562.62 12.2202C563.34 11.4902 564.08 10.7702 564.84 10.0702L565.56 9.43024L565.77 9.25024L566.35 8.76024L566.63 8.53024L567.2 8.09024L567.48 7.87024L568.34 7.25024C568.607 7.06811 568.888 6.9076 569.18 6.77024L567.38 2.21024L572.76 -0.00976562L646.95 180.04L641.57 182.26L599.12 79.2602L598.82 79.5602C588.987 89.2588 576.945 96.4241 563.73 100.44H563.65C556.26 102.67 547.99 104.25 541.77 108.44C539.565 109.874 537.648 111.709 536.12 113.85C534.66 115.93 533.64 118.3 532.07 120.3C531.78 120.67 531.46 121.03 531.14 121.37C529.321 123.17 527.309 124.763 525.14 126.12L524.14 126.77C517.698 131.307 510.985 135.448 504.04 139.17C500.033 141.257 495.854 142.997 491.55 144.37C488.42 145.37 485.19 146.1 482.06 147.09C479.951 147.726 477.903 148.549 475.94 149.55C470.64 152.32 466.57 156.66 462.72 161.29C459.35 165.35 456.15 169.64 452.45 173.34C450.14 175.65 446.61 177.82 443.8 176.47C443.606 176.373 443.419 176.263 443.24 176.14C443.32 175.99 443.4 175.84 443.47 175.68C445.68 171.05 442.96 165.33 439.3 161.61C438.92 161.23 438.53 160.85 438.13 160.48C437.73 160.11 437.02 159.48 436.44 158.98C433.31 156.29 429.98 153.79 427.81 150.32C426.157 147.404 425.033 144.218 424.49 140.91C423.49 136.2 422.83 131.35 420.27 127.34C418.58 124.69 416.09 122.43 414.27 119.89C413.118 118.392 412.361 116.628 412.07 114.76C411.66 111.5 413.17 108.32 413.74 105.08C413.907 104.197 413.974 103.298 413.94 102.4C413.739 100.011 412.934 97.7127 411.6 95.7202V95.7202Z" fill="url(#paint2_linear)"/>
<path d="M639.63 180.802L644.927 178.619L571.964 1.59582L566.666 3.77937L639.63 180.802Z" fill="#D6D8E1"/>
<path d="M422.07 126.73C424.59 130.67 425.25 135.44 426.22 140.07C426.756 143.322 427.863 146.454 429.49 149.32C431.63 152.73 434.9 155.2 437.97 157.84C438.53 158.32 439.09 158.84 439.63 159.31C440.17 159.78 440.41 160.04 440.78 160.42C444.38 164.07 447.05 169.69 444.88 174.25C444.81 174.4 444.74 174.55 444.65 174.7C444.826 174.819 445.01 174.926 445.2 175.02C447.96 176.35 451.43 174.21 453.7 171.94C457.34 168.3 460.49 164.08 463.8 160.09C467.58 155.53 471.59 151.27 476.8 148.54C478.724 147.556 480.732 146.746 482.8 146.12C485.87 145.12 489.05 144.41 492.13 143.44C496.365 142.091 500.477 140.381 504.42 138.33C511.247 134.671 517.846 130.6 524.18 126.14L525.12 125.5C527.253 124.166 529.231 122.599 531.02 120.83C531.34 120.49 531.65 120.14 531.93 119.78C533.47 117.78 534.48 115.48 535.93 113.44C537.434 111.334 539.32 109.53 541.49 108.12C547.61 104.05 555.73 102.49 563 100.3H563.08C576.073 96.3511 587.912 89.3059 597.58 79.7702C598.383 79.1025 598.983 78.2224 599.31 77.2302C599.62 75.8202 598.86 74.4302 598.13 73.2302C597.277 71.7769 596.447 70.3102 595.64 68.8302C591.949 62.1151 588.653 55.1899 585.77 48.0902C585.14 46.5402 584.53 44.9802 583.94 43.4102C582.427 39.4102 581.047 35.3535 579.8 31.2402C579.39 29.8702 578.99 28.5102 578.61 27.1302C578.54 26.8702 578.47 26.5902 578.39 26.2902C576.73 19.5402 574.51 3.9702 567.68 8.64021C565.643 10.0873 563.751 11.7283 562.03 13.5402C560.7 14.8902 559.4 16.2802 558.03 17.6202C556.916 18.7192 555.737 19.751 554.5 20.7102C553.246 21.6705 551.907 22.514 550.5 23.2302C545.08 26.0102 539.33 28.3402 534.04 31.3202C531.131 32.9135 528.399 34.8108 525.89 36.9802C522.4 40.0602 519.43 43.8602 515.37 46.0902L514.92 46.3202C507.74 49.9802 499.29 47.7902 491.13 47.6202C489.92 47.6202 488.71 47.6202 487.52 47.7102C480.9 48.2202 474.84 50.8802 468.98 54.1202C464.86 56.4002 460.84 58.9802 456.79 61.3102C454.23 62.7802 451.67 64.3702 449.09 66.0002C442.54 70.1202 435.92 74.4502 429.09 77.5602C422.26 80.6702 414.86 82.6502 407.23 81.7702C406.58 86.9202 410.74 91.0802 413.52 95.6302C414.847 97.5821 415.656 99.8396 415.87 102.19C415.902 103.072 415.835 103.954 415.67 104.82C415.11 108.01 413.67 111.13 414.03 114.34C414.322 116.161 415.065 117.879 416.19 119.34C417.96 121.9 420.38 124.13 422.07 126.73Z" fill="#E6E8ED"/>
<path d="M554.48 20.7198L560.06 33.9698L578.38 26.2498C576.73 19.5398 574.51 3.9698 567.68 8.6398C562.73 12.0198 559.38 16.9598 554.48 20.7198Z" fill="#5A5773"/>
<path d="M515.38 46.0998L517.76 51.7598L538.9 42.8598L534.04 31.3198C531.131 32.9131 528.399 34.8104 525.89 36.9798C522.38 40.0698 519.45 43.8698 515.38 46.0998Z" fill="#5A5773"/>
<path d="M469 54.1401L475.49 69.5401L496.63 60.6401L491.15 47.6401C489.94 47.6401 488.73 47.6401 487.54 47.7301C480.92 48.2301 474.86 50.8901 469 54.1401Z" fill="#5A5773"/>
<path d="M429.08 77.54L433.2 87.32L454.34 78.42L449.1 65.98C442.56 70.14 435.93 74.46 429.08 77.54Z" fill="#5A5773"/>
<path d="M547.801 63.961L568.946 55.064L560.049 33.9195L538.904 42.8165L547.801 63.961Z" fill="#5A5773"/>
<path d="M505.518 81.7525L526.662 72.8555L517.765 51.711L496.621 60.608L505.518 81.7525Z" fill="#5A5773"/>
<path d="M463.238 99.5532L484.382 90.6562L475.485 69.5118L454.341 78.4088L463.238 99.5532Z" fill="#5A5773"/>
<path d="M415.67 104.84L420.96 117.4L442.1 108.5L433.2 87.3599L413.52 95.6399C414.847 97.5917 415.656 99.8492 415.87 102.2C415.903 103.085 415.836 103.97 415.67 104.84V104.84Z" fill="#5A5773"/>
<path d="M568.96 55.1098L577.86 76.2498L595.64 68.7698C591.949 62.0546 588.653 55.1295 585.77 48.0298L568.96 55.1098Z" fill="#5A5773"/>
<path d="M535.562 94.001L556.707 85.104L547.81 63.9596L526.665 72.8566L535.562 94.001Z" fill="#5A5773"/>
<path d="M493.269 111.796L514.414 102.899L505.517 81.755L484.372 90.652L493.269 111.796Z" fill="#5A5773"/>
<path d="M450.989 129.607L472.134 120.71L463.237 99.566L442.092 108.463L450.989 129.607Z" fill="#5A5773"/>
<path d="M556.71 85.1502L563.08 100.28C570.435 98.0439 577.447 94.8069 583.92 90.6602L577.85 76.2402L556.71 85.1502Z" fill="#5A5773"/>
<path d="M514.38 102.95L523.28 124.09L530.99 120.84C531.31 120.5 531.62 120.15 531.9 119.79C533.44 117.79 534.45 115.49 535.9 113.45C537.404 111.344 539.29 109.539 541.46 108.13L535.54 94.0498L514.38 102.95Z" fill="#5A5773"/>
<path d="M481.04 141.837L502.184 132.94L493.287 111.796L472.143 120.692L481.04 141.837Z" fill="#5A5773"/>
<path d="M429.85 138.54L437.97 157.84C438.53 158.32 439.09 158.84 439.63 159.31L459.89 150.78L450.99 129.64L429.85 138.54Z" fill="#5A5773"/>
<path d="M426.22 140.07L429.85 138.54L420.95 117.4L416.18 119.4C417.95 121.9 420.4 124.12 422.06 126.72C424.59 130.67 425.25 135.44 426.22 140.07Z" fill="#5A5773"/>
<path d="M502.18 132.99L504.43 138.35C511.258 134.69 517.856 130.62 524.19 126.16L523.32 124.09L502.18 132.99Z" fill="#5A5773"/>
<path d="M459.9 150.79L463.82 160.1C467.6 155.54 471.61 151.28 476.82 148.55C478.744 147.566 480.752 146.756 482.82 146.13L481.03 141.89L459.9 150.79Z" fill="#5A5773"/>
<path d="M772.38 695.67C772.38 695.67 771.9 708.57 743.71 704.75C715.52 700.93 753.27 723.39 753.27 723.39L829.27 724.82C829.27 724.82 833.74 691.82 822.58 691.82C822.09 691.85 772.38 695.67 772.38 695.67Z" fill="#4A4347"/>
<path opacity="0.1" d="M772.38 695.67C772.38 695.67 771.9 708.57 743.71 704.75C715.52 700.93 753.27 723.39 753.27 723.39L829.27 724.82C829.27 724.82 833.74 691.82 822.58 691.82C822.09 691.85 772.38 695.67 772.38 695.67Z" fill="black"/>
<path d="M713.13 489.7C713.528 491.251 714.308 492.678 715.4 493.85C726.47 506.1 769.95 502.39 774.3 504.99C774.96 505.39 775.59 507.54 776.18 510.99C778.23 522.93 779.8 550.28 780.78 571.9C781.54 588.69 781.95 602.03 781.95 602.03L784.38 706.67L812.52 702.27L830.22 699.54L821.62 631.2C821.62 631.2 821.14 568.12 822.62 564.29C826.96 552.72 824.54 534.29 821.62 520.56C819.177 509.181 818.936 497.44 820.91 485.97C825.91 457.28 818.63 435.08 813.66 424.13C812.506 421.538 811.17 419.032 809.66 416.63C809.66 416.63 739.41 415.63 726.98 423.32C724.659 424.928 722.757 427.068 721.43 429.56C712.96 443.89 709.53 475.31 713.13 489.7Z" fill="#5A5773"/>
<path d="M754.23 714.79C754.23 714.79 753.75 727.69 725.56 723.87C707.35 721.4 716.65 729.87 725.56 736.22C731.315 740.317 738.176 742.576 745.24 742.7L811.14 743.94C811.14 743.94 815.61 710.94 804.45 710.94C803.93 710.97 754.23 714.79 754.23 714.79Z" fill="#4A4347"/>
<path d="M852.68 330.08C852.68 330.08 856.97 330.4 863.68 330.59C871.12 330.8 881.55 330.84 892.37 330.08C912.92 328.65 908.14 314.31 908.14 314.31L900.02 257.92C900.02 257.92 879.47 210.61 873.74 224.47C868.01 238.33 884.25 260.31 884.25 260.31C884.25 260.31 891.42 297.59 884.25 302.84C879.71 306.17 872.25 304.07 867.25 302.08C865.6 301.42 863.99 300.662 862.43 299.81L852.68 330.08Z" fill="#A1616A"/>
<path d="M636.19 187.19L641.45 244.54C641.45 244.54 647.66 256.49 654.83 260.31C659.74 262.93 669.34 271.14 674.92 276.06C677.49 278.33 679.21 279.9 679.21 279.9L693.55 256.96C692.563 255.609 691.455 254.351 690.24 253.2C685.22 248.316 678.903 244.977 672.04 243.58C672.04 243.58 670.85 240 668.22 233.58C666.38 229.07 654.84 203.95 654.84 203.95C654.84 203.95 650.06 183.88 651.02 173.84C651.98 163.8 636.21 144.69 633.82 147.08C631.43 149.47 629.5 177.63 636.19 187.19Z" fill="#A1616A"/>
<path d="M743.24 285.64C743.24 285.64 794.85 292.81 788.16 281.34C786.32 278.19 785.24 273.62 784.64 268.66C783.06 255.58 784.82 239.76 784.82 239.76L746.11 246.45C748.335 253.877 748.878 261.706 747.7 269.37C746.945 274.968 745.445 280.439 743.24 285.64Z" fill="#A1616A"/>
<path d="M761.16 259.12C774.884 259.12 786.01 247.994 786.01 234.27C786.01 220.546 774.884 209.42 761.16 209.42C747.436 209.42 736.31 220.546 736.31 234.27C736.31 247.994 747.436 259.12 761.16 259.12Z" fill="#A1616A"/>
<path opacity="0.1" d="M721.44 429.54C723.731 431.444 726.46 432.75 729.38 433.34C737.03 434.77 761.88 437.64 771.44 429.99C779.02 423.93 803.73 423.87 813.63 424.11C812.476 421.518 811.14 419.012 809.63 416.61C809.63 416.61 739.38 415.61 726.95 423.3C724.644 424.913 722.755 427.052 721.44 429.54V429.54Z" fill="black"/>
<path opacity="0.1" d="M674.92 276.06C677.49 278.33 679.21 279.9 679.21 279.9L693.55 256.96C692.563 255.609 691.455 254.351 690.24 253.2C683.26 254.54 677.2 269.62 674.92 276.06Z" fill="black"/>
<path opacity="0.1" d="M852.68 330.08C852.68 330.08 856.97 330.4 863.68 330.59C874.24 317.92 868.63 305.4 867.29 302.08C865.64 301.42 864.03 300.662 862.47 299.81L852.68 330.08Z" fill="black"/>
<path opacity="0.1" d="M743.24 285.64C743.24 285.64 794.85 292.81 788.16 281.34C786.32 278.19 785.24 273.62 784.64 268.66C780.432 266.937 775.976 265.894 771.44 265.57C762.58 263.36 753.1 266.79 747.7 269.37C746.945 274.968 745.445 280.44 743.24 285.64Z" fill="black"/>
<path d="M771.44 266.54C771.44 266.54 791.99 267.54 795.81 280.88C795.81 280.88 815.88 287.57 826.4 288.05C836.92 288.53 865.11 300 865.59 301.91C866.07 303.82 875.59 320.55 857.47 335.84C857.47 335.84 836.92 328.67 827.84 341.57C818.76 354.47 808.72 416.12 817.84 422.81C817.84 422.81 781.04 420.9 771.48 428.54C761.92 436.18 737.07 433.32 729.42 431.89C721.77 430.46 711.26 422.33 710.78 399.89C710.3 377.45 718.43 329.16 706.48 323.43C694.53 317.7 675.42 279.43 675.42 279.43C675.42 279.43 683.07 254.58 692.15 253.62C692.15 253.62 714.61 267.48 724.15 268.43C730.654 269.204 737.061 270.645 743.27 272.73C743.27 272.73 758.06 263.17 771.44 266.54Z" fill="#605D82"/>
<path opacity="0.1" d="M787.69 603.92C787.69 603.92 783.62 585.92 780.78 571.92C781.54 588.71 781.95 602.05 781.95 602.05L784.38 706.67L812.52 702.27L787.69 603.92Z" fill="black"/>
<path d="M716 481.54C716 481.54 706.44 518.34 716 531.24C725.56 544.14 736.55 596.71 736.55 596.71C736.55 596.71 743.72 633.51 748.98 639.71C754.24 645.91 751.85 719.04 751.85 719.04L813.98 715.69L785.78 603.86C785.78 603.86 776.7 563.72 776.22 556.55C775.74 549.38 773.35 487.25 773.35 487.25L716 481.54Z" fill="#5A5773"/>
<path opacity="0.1" d="M746.11 222.94C741.389 221.178 737.084 218.455 733.47 214.943C729.855 211.432 727.008 207.208 725.11 202.54C727.75 201.54 730.52 203.98 733.33 203.79C736.73 203.56 738.66 199.79 741.57 198.07C745.36 195.77 750.34 197.07 754.17 199.33C758 201.59 761.43 204.62 765.66 205.96C769.28 207.11 773.17 206.88 776.97 207.1C781.79 207.37 791.73 208.23 795.34 211.91C797.34 213.91 796.44 215.91 794.62 217.59C795.11 220.4 794.12 222.99 794.44 226.31C794.909 229.182 794.519 232.129 793.32 234.78C791.95 238.51 790.02 241.44 788.15 244.95C786.91 247.29 787.62 250.36 786.15 252.57C785.363 253.602 784.332 254.423 783.15 254.96C776.1 258.729 767.893 259.718 760.15 257.73C757.55 257.05 754.87 255.89 753.48 253.59C751.17 249.76 753.48 244.88 753.24 240.41C752.97 234.09 747.64 228.92 746.11 222.94Z" fill="black"/>
<path d="M746.58 222.46C741.859 220.698 737.555 217.975 733.94 214.463C730.325 210.952 727.479 206.728 725.58 202.06C728.22 201.06 730.99 203.5 733.8 203.31C737.2 203.08 739.13 199.31 742.04 197.59C745.83 195.29 750.81 196.59 754.64 198.85C758.47 201.11 761.9 204.14 766.13 205.48C769.75 206.63 773.64 206.4 777.44 206.62C782.26 206.89 792.2 207.75 795.81 211.43C797.81 213.43 796.91 215.43 795.09 217.11C795.58 219.92 794.59 222.51 794.91 225.83C795.379 228.702 794.99 231.649 793.79 234.3C792.42 238.03 790.49 240.96 788.62 244.47C787.38 246.81 788.09 249.88 786.62 252.09C785.833 253.122 784.802 253.943 783.62 254.48C776.57 258.249 768.363 259.238 760.62 257.25C758.02 256.57 755.34 255.41 753.95 253.11C751.64 249.28 753.95 244.4 753.71 239.93C753.45 233.62 748.12 228.44 746.58 222.46Z" fill="#4A4347"/>
<path opacity="0.1" d="M751.6 255.77L748.12 257L747.96 255.33C747.96 255.33 747.78 256.25 751.6 255.77Z" fill="black"/>
</g>
<defs>
<linearGradient id="paint0_linear" x1="527.43" y1="474.46" x2="527.43" y2="356.75" gradientUnits="userSpaceOnUse">
<stop stop-color="#808080" stop-opacity="0.25"/>
<stop offset="0.54" stop-color="#808080" stop-opacity="0.12"/>
<stop offset="1" stop-color="#808080" stop-opacity="0.1"/>
</linearGradient>
<linearGradient id="paint1_linear" x1="31609.2" y1="23576.2" x2="31609.2" y2="20689.5" gradientUnits="userSpaceOnUse">
<stop stop-color="#808080" stop-opacity="0.25"/>
<stop offset="0.54" stop-color="#808080" stop-opacity="0.12"/>
<stop offset="1" stop-color="#808080" stop-opacity="0.1"/>
</linearGradient>
<linearGradient id="paint2_linear" x1="-627529" y1="29270.7" x2="-686001" y2="29270.7" gradientUnits="userSpaceOnUse">
<stop stop-color="#808080" stop-opacity="0.25"/>
<stop offset="0.54" stop-color="#808080" stop-opacity="0.12"/>
<stop offset="1" stop-color="#808080" stop-opacity="0.1"/>
</linearGradient>
<clipPath id="clip0">
<rect width="1022.76" height="761.09" fill="white"/>
</clipPath>
</defs>
</svg>
